{"asset":{"version":"2.0","generator":"Blockbench 4.12.4 glTF exporter"},"scenes":[{"nodes":[32],"name":"blockbench_export"}],"scene":0,"nodes":[{"translation":[0,0.6875,0.5625],"name":"cuboid","mesh":0},{"translation":[-0.1875,0.7125,6.1875],"name":"cuboid","mesh":1},{"translation":[-0.4375,0.7125,6.1875],"name":"cuboid","mesh":2},{"translation":[0.1875,0.7125,6.1875],"name":"cuboid","mesh":3},{"translation":[0.4375,0.7125,6.1875],"name":"cuboid","mesh":4},{"name":"doors","children":[1,2,3,4]},{"translation":[0,0,-0.125],"name":"trailer_body","children":[0,5]},{"rotation":[0,0,0.7071067811865475,0.7071067811865476],"translation":[-0.65625,0.125,4.5],"name":"front_left_wheel","mesh":5},{"rotation":[0,0,0.7071067811865475,0.7071067811865476],"translation":[-0.65625,0.125,5.25],"name":"back_left_wheel","mesh":6},{"rotation":[0,0,-0.7071067811865475,0.7071067811865476],"translation":[0.65625,0.125,5.25],"name":"back_right_wheel","mesh":7},{"rotation":[0,0,-0.7071067811865475,0.7071067811865476],"translation":[0.65625,0.125,4.5],"name":"front_right_wheel","mesh":8},{"translation":[0,0,0.125],"name":"trailer_wheels","children":[7,8,9,10]},{"translation":[0,-0.25,0],"name":"cuboid","mesh":9},{"translation":[-0.4375,-0.375,0],"name":"cuboid","mesh":10},{"translation":[0.4375,-0.375,0],"name":"cuboid","mesh":11},{"rotation":[-0.7071067811865475,0,0,0.7071067811865476],"translation":[0,0.625,1.5625],"name":"leg","children":[12,13,14]},{"translation":[-1.0625,0.1875,2.8125],"name":"cuboid","mesh":12},{"translation":[-1.125,0.25,3.3125],"name":"cuboid","mesh":13},{"translation":[-1.125,0,3.3125],"name":"cuboid","mesh":14},{"translation":[-1.0625,0.1875,3.875],"name":"cuboid","mesh":15},{"translation":[1.0625,0.1875,3.875],"name":"cuboid","mesh":16},{"translation":[1.125,0,3.3125],"name":"cuboid","mesh":17},{"translation":[1.0625,0.1875,2.8125],"name":"cuboid","mesh":18},{"translation":[1.125,0.25,3.3125],"name":"cuboid","mesh":19},{"translation":[0,0,-0.125],"name":"fence","children":[16,17,18,19,20,21,22,23]},{"translation":[0,0.625,0.5625],"name":"cuboid","mesh":20},{"translation":[0,0.625,0.5625],"name":"cuboid","mesh":21},{"translation":[0,0.625,0.5625],"name":"cuboid","mesh":22},{"translation":[0,0.625,0.5625],"name":"cuboid","mesh":23},{"translation":[0,0,-0.125],"name":"structure","children":[25,26,27,28]},{"translation":[0,0,0.125],"name":"trailer","children":[6,11,15,24,29]},{"name":"root","children":[30]},{"children":[31]}],"bufferViews":[{"buffer":0,"byteOffset":0,"byteLength":672,"target":34962,"byteStride":12},{"buffer":0,"byteOffset":672,"byteLength":672,"target":34962,"byteStride":12},{"buffer":0,"byteOffset":1344,"byteLength":448,"target":34962,"byteStride":8},{"buffer":0,"byteOffset":1792,"byteLength":168,"target":34963},{"buffer":0,"byteOffset":1960,"byteLength":288,"target":34962,"byteStride":12},{"buffer":0,"byteOffset":2248,"byteLength":288,"target":34962,"byteStride":12},{"buffer":0,"byteOffset":2536,"byteLength":192,"target":34962,"byteStride":8},{"buffer":0,"byteOffset":2728,"byteLength":72,"target":34963},{"buffer":0,"byteOffset":2800,"byteLength":288,"target":34962,"byteStride":12},{"buffer":0,"byteOffset":3088,"byteLength":288,"target":34962,"byteStride":12},{"buffer":0,"byteOffset":3376,"byteLength":192,"target":34962,"byteStride":8},{"buffer":0,"byteOffset":3568,"byteLength":72,"target":34963},{"buffer":0,"byteOffset":3640,"byteLength":288,"target":34962,"byteStride":12},{"buffer":0,"byteOffset":3928,"byteLength":288,"target":34962,"byteStride":12},{"buffer":0,"byteOffset":4216,"byteLength":192,"target":34962,"byteStride":8},{"buffer":0,"byteOffset":4408,"byteLength":72,"target":34963},{"buffer":0,"byteOffset":4480,"byteLength":288,"target":34962,"byteStride":12},{"buffer":0,"byteOffset":4768,"byteLength":288,"target":34962,"byteStride":12},{"buffer":0,"byteOffset":5056,"byteLength":192,"target":34962,"byteStride":8},{"buffer":0,"byteOffset":5248,"byteLength":72,"target":34963},{"buffer":0,"byteOffset":5320,"byteLength":2592,"target":34962,"byteStride":12},{"buffer":0,"byteOffset":7912,"byteLength":2592,"target":34962,"byteStride":12},{"buffer":0,"byteOffset":10504,"byteLength":1728,"target":34962,"byteStride":8},{"buffer":0,"byteOffset":12232,"byteLength":576,"target":34963},{"buffer":0,"byteOffset":12808,"byteLength":2592,"target":34962,"byteStride":12},{"buffer":0,"byteOffset":15400,"byteLength":2592,"target":34962,"byteStride":12},{"buffer":0,"byteOffset":17992,"byteLength":1728,"target":34962,"byteStride":8},{"buffer":0,"byteOffset":19720,"byteLength":576,"target":34963},{"buffer":0,"byteOffset":20296,"byteLength":2592,"target":34962,"byteStride":12},{"buffer":0,"byteOffset":22888,"byteLength":2592,"target":34962,"byteStride":12},{"buffer":0,"byteOffset":25480,"byteLength":1728,"target":34962,"byteStride":8},{"buffer":0,"byteOffset":27208,"byteLength":576,"target":34963},{"buffer":0,"byteOffset":27784,"byteLength":2592,"target":34962,"byteStride":12},{"buffer":0,"byteOffset":30376,"byteLength":2592,"target":34962,"byteStride":12},{"buffer":0,"byteOffset":32968,"byteLength":1728,"target":34962,"byteStride":8},{"buffer":0,"byteOffset":34696,"byteLength":576,"target":34963},{"buffer":0,"byteOffset":35272,"byteLength":288,"target":34962,"byteStride":12},{"buffer":0,"byteOffset":35560,"byteLength":288,"target":34962,"byteStride":12},{"buffer":0,"byteOffset":35848,"byteLength":192,"target":34962,"byteStride":8},{"buffer":0,"byteOffset":36040,"byteLength":72,"target":34963},{"buffer":0,"byteOffset":36112,"byteLength":480,"target":34962,"byteStride":12},{"buffer":0,"byteOffset":36592,"byteLength":480,"target":34962,"byteStride":12},{"buffer":0,"byteOffset":37072,"byteLength":320,"target":34962,"byteStride":8},{"buffer":0,"byteOffset":37392,"byteLength":120,"target":34963},{"buffer":0,"byteOffset":37512,"byteLength":480,"target":34962,"byteStride":12},{"buffer":0,"byteOffset":37992,"byteLength":480,"target":34962,"byteStride":12},{"buffer":0,"byteOffset":38472,"byteLength":320,"target":34962,"byteStride":8},{"buffer":0,"byteOffset":38792,"byteLength":120,"target":34963},{"buffer":0,"byteOffset":38912,"byteLength":288,"target":34962,"byteStride":12},{"buffer":0,"byteOffset":39200,"byteLength":288,"target":34962,"byteStride":12},{"buffer":0,"byteOffset":39488,"byteLength":192,"target":34962,"byteStride":8},{"buffer":0,"byteOffset":39680,"byteLength":72,"target":34963},{"buffer":0,"byteOffset":39752,"byteLength":288,"target":34962,"byteStride":12},{"buffer":0,"byteOffset":40040,"byteLength":288,"target":34962,"byteStride":12},{"buffer":0,"byteOffset":40328,"byteLength":192,"target":34962,"byteStride":8},{"buffer":0,"byteOffset":40520,"byteLength":72,"target":34963},{"buffer":0,"byteOffset":40592,"byteLength":288,"target":34962,"byteStride":12},{"buffer":0,"byteOffset":40880,"byteLength":288,"target":34962,"byteStride":12},{"buffer":0,"byteOffset":41168,"byteLength":192,"target":34962,"byteStride":8},{"buffer":0,"byteOffset":41360,"byteLength":72,"target":34963},{"buffer":0,"byteOffset":41432,"byteLength":288,"target":34962,"byteStride":12},{"buffer":0,"byteOffset":41720,"byteLength":288,"target":34962,"byteStride":12},{"buffer":0,"byteOffset":42008,"byteLength":192,"target":34962,"byteStride":8},{"buffer":0,"byteOffset":42200,"byteLength":72,"target":34963},{"buffer":0,"byteOffset":42272,"byteLength":288,"target":34962,"byteStride":12},{"buffer":0,"byteOffset":42560,"byteLength":288,"target":34962,"byteStride":12},{"buffer":0,"byteOffset":42848,"byteLength":192,"target":34962,"byteStride":8},{"buffer":0,"byteOffset":43040,"byteLength":72,"target":34963},{"buffer":0,"byteOffset":43112,"byteLength":288,"target":34962,"byteStride":12},{"buffer":0,"byteOffset":43400,"byteLength":288,"target":34962,"byteStride":12},{"buffer":0,"byteOffset":43688,"byteLength":192,"target":34962,"byteStride":8},{"buffer":0,"byteOffset":43880,"byteLength":72,"target":34963},{"buffer":0,"byteOffset":43952,"byteLength":288,"target":34962,"byteStride":12},{"buffer":0,"byteOffset":44240,"byteLength":288,"target":34962,"byteStride":12},{"buffer":0,"byteOffset":44528,"byteLength":192,"target":34962,"byteStride":8},{"buffer":0,"byteOffset":44720,"byteLength":72,"target":34963},{"buffer":0,"byteOffset":44792,"byteLength":288,"target":34962,"byteStride":12},{"buffer":0,"byteOffset":45080,"byteLength":288,"target":34962,"byteStride":12},{"buffer":0,"byteOffset":45368,"byteLength":192,"target":34962,"byteStride":8},{"buffer":0,"byteOffset":45560,"byteLength":72,"target":34963},{"buffer":0,"byteOffset":45632,"byteLength":288,"target":34962,"byteStride":12},{"buffer":0,"byteOffset":45920,"byteLength":288,"target":34962,"byteStride":12},{"buffer":0,"byteOffset":46208,"byteLength":192,"target":34962,"byteStride":8},{"buffer":0,"byteOffset":46400,"byteLength":72,"target":34963},{"buffer":0,"byteOffset":46472,"byteLength":288,"target":34962,"byteStride":12},{"buffer":0,"byteOffset":46760,"byteLength":288,"target":34962,"byteStride":12},{"buffer":0,"byteOffset":47048,"byteLength":192,"target":34962,"byteStride":8},{"buffer":0,"byteOffset":47240,"byteLength":72,"target":34963},{"buffer":0,"byteOffset":47312,"byteLength":480,"target":34962,"byteStride":12},{"buffer":0,"byteOffset":47792,"byteLength":480,"target":34962,"byteStride":12},{"buffer":0,"byteOffset":48272,"byteLength":320,"target":34962,"byteStride":8},{"buffer":0,"byteOffset":48592,"byteLength":120,"target":34963},{"buffer":0,"byteOffset":48712,"byteLength":672,"target":34962,"byteStride":12},{"buffer":0,"byteOffset":49384,"byteLength":672,"target":34962,"byteStride":12},{"buffer":0,"byteOffset":50056,"byteLength":448,"target":34962,"byteStride":8},{"buffer":0,"byteOffset":50504,"byteLength":168,"target":34963}],"buffers":[{"byteLength":50672,"uri":"data:application/octet-stream;base64,"}],"accessors":[{"bufferView":0,"componentType":5126,"count":56,"max":[0.75,1.375,5.625],"min":[-0.75,0,-0.5],"type":"VEC3"},{"bufferView":1,"componentType":5126,"count":56,"max":[1,1,1],"min":[-1,-1,-1],"type":"VEC3"},{"bufferView":2,"componentType":5126,"count":56,"max":[0.578125,0.3828125],"min":[0,0],"type":"VEC2"},{"bufferView":3,"componentType":5123,"count":84,"max":[55],"min":[0],"type":"SCALAR"},{"bufferView":4,"componentType":5126,"count":24,"max":[0.0625,1.3250000476837158,0],"min":[0,0,-0.0625],"type":"VEC3"},{"bufferView":5,"componentType":5126,"count":24,"max":[1,1,1],"min":[-1,-1,-1],"type":"VEC3"},{"bufferView":6,"componentType":5126,"count":24,"max":[0.53125,0.65625],"min":[0,0],"type":"VEC2"},{"bufferView":7,"componentType":5123,"count":36,"max":[23],"min":[0],"type":"SCALAR"},{"bufferView":8,"componentType":5126,"count":24,"max":[0.0625,1.3250000476837158,0],"min":[0,0,-0.0625],"type":"VEC3"},{"bufferView":9,"componentType":5126,"count":24,"max":[1,1,1],"min":[-1,-1,-1],"type":"VEC3"},{"bufferView":10,"componentType":5126,"count":24,"max":[0.53125,0.65625],"min":[0.25,0],"type":"VEC2"},{"bufferView":11,"componentType":5123,"count":36,"max":[23],"min":[0],"type":"SCALAR"},{"bufferView":12,"componentType":5126,"count":24,"max":[0,1.3250000476837158,0],"min":[-0.0625,0,-0.0625],"type":"VEC3"},{"bufferView":13,"componentType":5126,"count":24,"max":[1,1,1],"min":[-1,-1,-1],"type":"VEC3"},{"bufferView":14,"componentType":5126,"count":24,"max":[2.5625,2.90625],"min":[1.625,2.21875],"type":"VEC2"},{"bufferView":15,"componentType":5123,"count":36,"max":[23],"min":[0],"type":"SCALAR"},{"bufferView":16,"componentType":5126,"count":24,"max":[0,1.3250000476837158,0],"min":[-0.0625,0,-0.0625],"type":"VEC3"},{"bufferView":17,"componentType":5126,"count":24,"max":[1,1,1],"min":[-1,-1,-1],"type":"VEC3"},{"bufferView":18,"componentType":5126,"count":24,"max":[2.8125,2.90625],"min":[1.75,2.21875],"type":"VEC2"},{"bufferView":19,"componentType":5123,"count":36,"max":[23],"min":[0],"type":"SCALAR"},{"bufferView":20,"componentType":5126,"count":216,"max":[0.3125,0.15625,0.3125],"min":[-0.3125,-0.15625,-0.3125],"type":"VEC3"},{"bufferView":21,"componentType":5126,"count":216,"max":[1,1,1],"min":[-1,-1,-1],"type":"VEC3"},{"bufferView":22,"componentType":5126,"count":216,"max":[0.891226589679718,0.78125],"min":[0,0],"type":"VEC2"},{"bufferView":23,"componentType":5123,"count":288,"max":[215],"min":[0],"type":"SCALAR"},{"bufferView":24,"componentType":5126,"count":216,"max":[0.3125,0.15625,0.3125],"min":[-0.3125,-0.15625,-0.3125],"type":"VEC3"},{"bufferView":25,"componentType":5126,"count":216,"max":[1,1,1],"min":[-1,-1,-1],"type":"VEC3"},{"bufferView":26,"componentType":5126,"count":216,"max":[0.891226589679718,0.78125],"min":[0,0],"type":"VEC2"},{"bufferView":27,"componentType":5123,"count":288,"max":[215],"min":[0],"type":"SCALAR"},{"bufferView":28,"componentType":5126,"count":216,"max":[0.3125,0.15625,0.3125],"min":[-0.3125,-0.15625,-0.3125],"type":"VEC3"},{"bufferView":29,"componentType":5126,"count":216,"max":[1,1,1],"min":[-1,-1,-1],"type":"VEC3"},{"bufferView":30,"componentType":5126,"count":216,"max":[0.891226589679718,0.78125],"min":[0,0],"type":"VEC2"},{"bufferView":31,"componentType":5123,"count":288,"max":[215],"min":[0],"type":"SCALAR"},{"bufferView":32,"componentType":5126,"count":216,"max":[0.3125,0.15625,0.3125],"min":[-0.3125,-0.15625,-0.3125],"type":"VEC3"},{"bufferView":33,"componentType":5126,"count":216,"max":[1,1,1],"min":[-1,-1,-1],"type":"VEC3"},{"bufferView":34,"componentType":5126,"count":216,"max":[0.891226589679718,0.78125],"min":[0,0],"type":"VEC2"},{"bufferView":35,"componentType":5123,"count":288,"max":[215],"min":[0],"type":"SCALAR"},{"bufferView":36,"componentType":5126,"count":24,"max":[0.5,0.3125,0.0625],"min":[-0.5,0.1875,-0.0625],"type":"VEC3"},{"bufferView":37,"componentType":5126,"count":24,"max":[1,1,1],"min":[-1,-1,-1],"type":"VEC3"},{"bufferView":38,"componentType":5126,"count":24,"max":[0.6640625,0.5625],"min":[0.0859375,0.296875],"type":"VEC2"},{"bufferView":39,"componentType":5123,"count":36,"max":[23],"min":[0],"type":"SCALAR"},{"bufferView":40,"componentType":5126,"count":40,"max":[0.125,0.3125,0.125],"min":[-0.125,-0.4375,-0.125],"type":"VEC3"},{"bufferView":41,"componentType":5126,"count":40,"max":[1,1,1],"min":[-1,-1,-1],"type":"VEC3"},{"bufferView":42,"componentType":5126,"count":40,"max":[0.125,0.125],"min":[0,0],"type":"VEC2"},{"bufferView":43,"componentType":5123,"count":60,"max":[39],"min":[0],"type":"SCALAR"},{"bufferView":44,"componentType":5126,"count":40,"max":[0.125,0.3125,0.125],"min":[-0.125,-0.4375,-0.125],"type":"VEC3"},{"bufferView":45,"componentType":5126,"count":40,"max":[1,1,1],"min":[-1,-1,-1],"type":"VEC3"},{"bufferView":46,"componentType":5126,"count":40,"max":[0.3359375,0.65625],"min":[0.0859375,0.3046875],"type":"VEC2"},{"bufferView":47,"componentType":5123,"count":60,"max":[39],"min":[0],"type":"SCALAR"},{"bufferView":48,"componentType":5126,"count":24,"max":[0.5,0.5,0.0625],"min":[0.4375,0,-0.0625],"type":"VEC3"},{"bufferView":49,"componentType":5126,"count":24,"max":[1,1,1],"min":[-1,-1,-1],"type":"VEC3"},{"bufferView":50,"componentType":5126,"count":24,"max":[0.125,0.125],"min":[0,0],"type":"VEC2"},{"bufferView":51,"componentType":5123,"count":36,"max":[23],"min":[0],"type":"SCALAR"},{"bufferView":52,"componentType":5126,"count":24,"max":[0.5,0.3125,0.8125],"min":[0.4375,0.1875,-0.75],"type":"VEC3"},{"bufferView":53,"componentType":5126,"count":24,"max":[1,1,1],"min":[-1,-1,-1],"type":"VEC3"},{"bufferView":54,"componentType":5126,"count":24,"max":[0.125,0.125],"min":[0,0],"type":"VEC2"},{"bufferView":55,"componentType":5123,"count":36,"max":[23],"min":[0],"type":"SCALAR"},{"bufferView":56,"componentType":5126,"count":24,"max":[0.5,0.3125,0.8125],"min":[0.4375,0.1875,-0.75],"type":"VEC3"},{"bufferView":57,"componentType":5126,"count":24,"max":[1,1,1],"min":[-1,-1,-1],"type":"VEC3"},{"bufferView":58,"componentType":5126,"count":24,"max":[0.125,0.125],"min":[0,0],"type":"VEC2"},{"bufferView":59,"componentType":5123,"count":36,"max":[23],"min":[0],"type":"SCALAR"},{"bufferView":60,"componentType":5126,"count":24,"max":[0.5,0.5,0.0625],"min":[0.4375,0,-0.0625],"type":"VEC3"},{"bufferView":61,"componentType":5126,"count":24,"max":[1,1,1],"min":[-1,-1,-1],"type":"VEC3"},{"bufferView":62,"componentType":5126,"count":24,"max":[0.125,0.125],"min":[0,0],"type":"VEC2"},{"bufferView":63,"componentType":5123,"count":36,"max":[23],"min":[0],"type":"SCALAR"},{"bufferView":64,"componentType":5126,"count":24,"max":[-0.4375,0.5,0.0625],"min":[-0.5,0,-0.0625],"type":"VEC3"},{"bufferView":65,"componentType":5126,"count":24,"max":[1,1,1],"min":[-1,-1,-1],"type":"VEC3"},{"bufferView":66,"componentType":5126,"count":24,"max":[0.34375,0.6328125],"min":[0.2265625,0.5234375],"type":"VEC2"},{"bufferView":67,"componentType":5123,"count":36,"max":[23],"min":[0],"type":"SCALAR"},{"bufferView":68,"componentType":5126,"count":24,"max":[-0.4375,0.3125,0.8125],"min":[-0.5,0.1875,-0.75],"type":"VEC3"},{"bufferView":69,"componentType":5126,"count":24,"max":[1,1,1],"min":[-1,-1,-1],"type":"VEC3"},{"bufferView":70,"componentType":5126,"count":24,"max":[0.6640625,0.765625],"min":[0.0859375,0.3671875],"type":"VEC2"},{"bufferView":71,"componentType":5123,"count":36,"max":[23],"min":[0],"type":"SCALAR"},{"bufferView":72,"componentType":5126,"count":24,"max":[-0.4375,0.5,0.0625],"min":[-0.5,0,-0.0625],"type":"VEC3"},{"bufferView":73,"componentType":5126,"count":24,"max":[1,1,1],"min":[-1,-1,-1],"type":"VEC3"},{"bufferView":74,"componentType":5126,"count":24,"max":[0.421875,0.640625],"min":[0.2734375,0.5234375],"type":"VEC2"},{"bufferView":75,"componentType":5123,"count":36,"max":[23],"min":[0],"type":"SCALAR"},{"bufferView":76,"componentType":5126,"count":24,"max":[-0.4375,0.3125,0.8125],"min":[-0.5,0.1875,-0.75],"type":"VEC3"},{"bufferView":77,"componentType":5126,"count":24,"max":[1,1,1],"min":[-1,-1,-1],"type":"VEC3"},{"bufferView":78,"componentType":5126,"count":24,"max":[0.6640625,0.765625],"min":[0.1015625,0.5],"type":"VEC2"},{"bufferView":79,"componentType":5123,"count":36,"max":[23],"min":[0],"type":"SCALAR"},{"bufferView":80,"componentType":5126,"count":24,"max":[0.3125,0.0625,3.5625],"min":[-0.3125,-0.125,1.1875],"type":"VEC3"},{"bufferView":81,"componentType":5126,"count":24,"max":[1,1,1],"min":[-1,-1,-0.8989896774291992],"type":"VEC3"},{"bufferView":82,"componentType":5126,"count":24,"max":[0.6796875,0.5859375],"min":[0,0],"type":"VEC2"},{"bufferView":83,"componentType":5123,"count":36,"max":[23],"min":[0],"type":"SCALAR"},{"bufferView":84,"componentType":5126,"count":24,"max":[0.8125,-0.0625,5.5625],"min":[-0.8125,-0.4375,5.5],"type":"VEC3"},{"bufferView":85,"componentType":5126,"count":24,"max":[1,1,1],"min":[-1,-1,-1],"type":"VEC3"},{"bufferView":86,"componentType":5126,"count":24,"max":[0.75,0.625],"min":[0.3515625,0],"type":"VEC2"},{"bufferView":87,"componentType":5123,"count":36,"max":[23],"min":[0],"type":"SCALAR"},{"bufferView":88,"componentType":5126,"count":40,"max":[0.3125,0.0625,5.5],"min":[-0.3125,-0.4375,3.5625],"type":"VEC3"},{"bufferView":89,"componentType":5126,"count":40,"max":[1,1,1],"min":[-1,-1,-1],"type":"VEC3"},{"bufferView":90,"componentType":5126,"count":40,"max":[0.5390625,0.5390625],"min":[0.0859375,0],"type":"VEC2"},{"bufferView":91,"componentType":5123,"count":60,"max":[39],"min":[0],"type":"SCALAR"},{"bufferView":92,"componentType":5126,"count":56,"max":[0.8125,-0.0625,5.375],"min":[-0.8125,-0.375,3.75],"type":"VEC3"},{"bufferView":93,"componentType":5126,"count":56,"max":[1,1,1],"min":[-1,-1,-1],"type":"VEC3"},{"bufferView":94,"componentType":5126,"count":56,"max":[0.765625,0.5703125],"min":[0,0],"type":"VEC2"},{"bufferView":95,"componentType":5123,"count":84,"max":[55],"min":[0],"type":"SCALAR"}],"materials":[{"pbrMetallicRoughness":{"metallicFactor":0,"roughnessFactor":1,"baseColorTexture":{"index":0}},"alphaMode":"MASK","alphaCutoff":0.05,"doubleSided":true},{"pbrMetallicRoughness":{"metallicFactor":0,"roughnessFactor":1,"baseColorTexture":{"index":1}},"alphaMode":"MASK","alphaCutoff":0.05,"doubleSided":true},{"pbrMetallicRoughness":{"metallicFactor":0,"roughnessFactor":1,"baseColorTexture":{"index":2}},"alphaMode":"MASK","alphaCutoff":0.05,"doubleSided":true},{"pbrMetallicRoughness":{"metallicFactor":0,"roughnessFactor":1,"baseColorTexture":{"index":3}},"alphaMode":"MASK","alphaCutoff":0.05,"doubleSided":true}],"textures":[{"sampler":0,"source":0,"name":"body_texture1.png"},{"sampler":1,"source":1,"name":"doors_texture.png"},{"sampler":2,"source":2,"name":"wheel_texture.png"},{"sampler":3,"source":3,"name":"structure_texture.png"}],"samplers":[{"magFilter":9728,"minFilter":9728,"wrapS":33071,"wrapT":33071},{"magFilter":9728,"minFilter":9728,"wrapS":33071,"wrapT":33071},{"magFilter":9728,"minFilter":9728,"wrapS":33071,"wrapT":33071},{"magFilter":9728,"minFilter":9728,"wrapS":33071,"wrapT":33071}],"images":[{"mimeType":"image/png","uri":"data:image/png;base64,"},{"mimeType":"image/png","uri":"data:image/png;base64,"},{"mimeType":"image/png","uri":"data:image/png;base64,"},{"mimeType":"image/png","uri":"data:image/png;base64,"}],"meshes":[{"primitives":[{"mode":4,"attributes":{"POSITION":0,"NORMAL":1,"TEXCOORD_0":2},"indices":3,"material":0}]},{"primitives":[{"mode":4,"attributes":{"POSITION":4,"NORMAL":5,"TEXCOORD_0":6},"indices":7,"material":1}]},{"primitives":[{"mode":4,"attributes":{"POSITION":8,"NORMAL":9,"TEXCOORD_0":10},"indices":11,"material":1}]},{"primitives":[{"mode":4,"attributes":{"POSITION":12,"NORMAL":13,"TEXCOORD_0":14},"indices":15,"material":1}]},{"primitives":[{"mode":4,"attributes":{"POSITION":16,"NORMAL":17,"TEXCOORD_0":18},"indices":19,"material":1}]},{"primitives":[{"mode":4,"attributes":{"POSITION":20,"NORMAL":21,"TEXCOORD_0":22},"indices":23,"material":2}]},{"primitives":[{"mode":4,"attributes":{"POSITION":24,"NORMAL":25,"TEXCOORD_0":26},"indices":27,"material":2}]},{"primitives":[{"mode":4,"attributes":{"POSITION":28,"NORMAL":29,"TEXCOORD_0":30},"indices":31,"material":2}]},{"primitives":[{"mode":4,"attributes":{"POSITION":32,"NORMAL":33,"TEXCOORD_0":34},"indices":35,"material":2}]},{"primitives":[{"mode":4,"attributes":{"POSITION":36,"NORMAL":37,"TEXCOORD_0":38},"indices":39,"material":3}]},{"primitives":[{"mode":4,"attributes":{"POSITION":40,"NORMAL":41,"TEXCOORD_0":42},"indices":43,"material":3}]},{"primitives":[{"mode":4,"attributes":{"POSITION":44,"NORMAL":45,"TEXCOORD_0":46},"indices":47,"material":3}]},{"primitives":[{"mode":4,"attributes":{"POSITION":48,"NORMAL":49,"TEXCOORD_0":50},"indices":51,"material":3}]},{"primitives":[{"mode":4,"attributes":{"POSITION":52,"NORMAL":53,"TEXCOORD_0":54},"indices":55,"material":3}]},{"primitives":[{"mode":4,"attributes":{"POSITION":56,"NORMAL":57,"TEXCOORD_0":58},"indices":59,"material":3}]},{"primitives":[{"mode":4,"attributes":{"POSITION":60,"NORMAL":61,"TEXCOORD_0":62},"indices":63,"material":3}]},{"primitives":[{"mode":4,"attributes":{"POSITION":64,"NORMAL":65,"TEXCOORD_0":66},"indices":67,"material":3}]},{"primitives":[{"mode":4,"attributes":{"POSITION":68,"NORMAL":69,"TEXCOORD_0":70},"indices":71,"material":3}]},{"primitives":[{"mode":4,"attributes":{"POSITION":72,"NORMAL":73,"TEXCOORD_0":74},"indices":75,"material":3}]},{"primitives":[{"mode":4,"attributes":{"POSITION":76,"NORMAL":77,"TEXCOORD_0":78},"indices":79,"material":3}]},{"primitives":[{"mode":4,"attributes":{"POSITION":80,"NORMAL":81,"TEXCOORD_0":82},"indices":83,"material":3}]},{"primitives":[{"mode":4,"attributes":{"POSITION":84,"NORMAL":85,"TEXCOORD_0":86},"indices":87,"material":3}]},{"primitives":[{"mode":4,"attributes":{"POSITION":88,"NORMAL":89,"TEXCOORD_0":90},"indices":91,"material":3}]},{"primitives":[{"mode":4,"attributes":{"POSITION":92,"NORMAL":93,"TEXCOORD_0":94},"indices":95,"material":3}]}]}