{"asset":{"version":"2.0","generator":"Blockbench 4.12.4 glTF exporter"},"scenes":[{"nodes":[12],"name":"blockbench_export"}],"scene":0,"nodes":[{"rotation":[0,0.13052619222005157,0,0.9914448613738104],"translation":[-0.625,1.75,-1.8125],"name":"left mirror","mesh":0},{"rotation":[0,-0.13052619222005157,0,0.9914448613738104],"translation":[0.625,1.75,-1.8125],"name":"right mirror","mesh":1},{"translation":[0,-0.125,0],"name":"mirrors","children":[0,1]},{"name":"cuboid","mesh":2},{"translation":[0,0.125,0],"name":"body","children":[2,3]},{"rotation":[0,0,0.7071067811865475,0.7071067811865476],"translation":[-0.65625,0.125,-1.125],"name":"front_left_wheel","mesh":3},{"rotation":[0,0,-0.7071067811865475,0.7071067811865476],"translation":[0.65625,0.125,0.9375],"name":"back_right_wheel","mesh":4},{"rotation":[0,0,0.7071067811865475,0.7071067811865476],"translation":[-0.65625,0.125,0.9375],"name":"back_left_wheel","mesh":5},{"rotation":[0,0,-0.7071067811865475,0.7071067811865476],"translation":[0.65625,0.125,-1.125],"name":"front_right_wheel","mesh":6},{"name":"wheels","children":[5,6,7,8]},{"name":"truck","children":[4,9]},{"name":"root","children":[10]},{"children":[11]}],"bufferViews":[{"buffer":0,"byteOffset":0,"byteLength":1248,"target":34962,"byteStride":12},{"buffer":0,"byteOffset":1248,"byteLength":1248,"target":34962,"byteStride":12},{"buffer":0,"byteOffset":2496,"byteLength":832,"target":34962,"byteStride":8},{"buffer":0,"byteOffset":3328,"byteLength":312,"target":34963},{"buffer":0,"byteOffset":3640,"byteLength":1248,"target":34962,"byteStride":12},{"buffer":0,"byteOffset":4888,"byteLength":1248,"target":34962,"byteStride":12},{"buffer":0,"byteOffset":6136,"byteLength":832,"target":34962,"byteStride":8},{"buffer":0,"byteOffset":6968,"byteLength":312,"target":34963},{"buffer":0,"byteOffset":7280,"byteLength":12408,"target":34962,"byteStride":12},{"buffer":0,"byteOffset":19688,"byteLength":12408,"target":34962,"byteStride":12},{"buffer":0,"byteOffset":32096,"byteLength":8272,"target":34962,"byteStride":8},{"buffer":0,"byteOffset":40368,"byteLength":3036,"target":34963},{"buffer":0,"byteOffset":43404,"byteLength":2592,"target":34962,"byteStride":12},{"buffer":0,"byteOffset":45996,"byteLength":2592,"target":34962,"byteStride":12},{"buffer":0,"byteOffset":48588,"byteLength":1728,"target":34962,"byteStride":8},{"buffer":0,"byteOffset":50316,"byteLength":576,"target":34963},{"buffer":0,"byteOffset":50892,"byteLength":2592,"target":34962,"byteStride":12},{"buffer":0,"byteOffset":53484,"byteLength":2592,"target":34962,"byteStride":12},{"buffer":0,"byteOffset":56076,"byteLength":1728,"target":34962,"byteStride":8},{"buffer":0,"byteOffset":57804,"byteLength":576,"target":34963},{"buffer":0,"byteOffset":58380,"byteLength":2592,"target":34962,"byteStride":12},{"buffer":0,"byteOffset":60972,"byteLength":2592,"target":34962,"byteStride":12},{"buffer":0,"byteOffset":63564,"byteLength":1728,"target":34962,"byteStride":8},{"buffer":0,"byteOffset":65292,"byteLength":576,"target":34963},{"buffer":0,"byteOffset":65868,"byteLength":2592,"target":34962,"byteStride":12},{"buffer":0,"byteOffset":68460,"byteLength":2592,"target":34962,"byteStride":12},{"buffer":0,"byteOffset":71052,"byteLength":1728,"target":34962,"byteStride":8},{"buffer":0,"byteOffset":72780,"byteLength":576,"target":34963}],"buffers":[{"byteLength":73356,"uri":"data:application/octet-stream;base64,"}],"accessors":[{"bufferView":0,"componentType":5126,"count":104,"max":[0,0.125,0.06660187244415283],"min":[-0.5,-0.3125,-0.0625],"type":"VEC3"},{"bufferView":1,"componentType":5126,"count":104,"max":[1,1,1],"min":[-1,-1,-0.9486833214759827],"type":"VEC3"},{"bufferView":2,"componentType":5126,"count":104,"max":[0.75,0.8826124668121338],"min":[0,0],"type":"VEC2"},{"bufferView":3,"componentType":5123,"count":156,"max":[103],"min":[0],"type":"SCALAR"},{"bufferView":4,"componentType":5126,"count":104,"max":[0.5,0.125,0.06660187244415283],"min":[0,-0.3125,-0.0625],"type":"VEC3"},{"bufferView":5,"componentType":5126,"count":104,"max":[1,1,1],"min":[-1,-1,-0.9486833214759827],"type":"VEC3"},{"bufferView":6,"componentType":5126,"count":104,"max":[0.5625,0.6951124668121338],"min":[0,0],"type":"VEC2"},{"bufferView":7,"componentType":5123,"count":156,"max":[103],"min":[0],"type":"SCALAR"},{"bufferView":8,"componentType":5126,"count":1034,"max":[0.8125,1.9375,1.5],"min":[-0.8125,-0.0625,-2.0621955394744873],"type":"VEC3"},{"bufferView":9,"componentType":5126,"count":1034,"max":[1,1,1],"min":[-1,-1,-1],"type":"VEC3"},{"bufferView":10,"componentType":5126,"count":1034,"max":[0.9363101720809937,0.9140625],"min":[0,0],"type":"VEC2"},{"bufferView":11,"componentType":5123,"count":1518,"max":[1033],"min":[0],"type":"SCALAR"},{"bufferView":12,"componentType":5126,"count":216,"max":[0.3125,0.15625,0.3125],"min":[-0.3125,-0.15625,-0.3125],"type":"VEC3"},{"bufferView":13,"componentType":5126,"count":216,"max":[1,1,1],"min":[-1,-1,-1],"type":"VEC3"},{"bufferView":14,"componentType":5126,"count":216,"max":[0.891226589679718,0.78125],"min":[0,0],"type":"VEC2"},{"bufferView":15,"componentType":5123,"count":288,"max":[215],"min":[0],"type":"SCALAR"},{"bufferView":16,"componentType":5126,"count":216,"max":[0.3125,0.15625,0.3125],"min":[-0.3125,-0.15625,-0.3125],"type":"VEC3"},{"bufferView":17,"componentType":5126,"count":216,"max":[1,1,1],"min":[-1,-1,-1],"type":"VEC3"},{"bufferView":18,"componentType":5126,"count":216,"max":[0.891226589679718,0.78125],"min":[0,0],"type":"VEC2"},{"bufferView":19,"componentType":5123,"count":288,"max":[215],"min":[0],"type":"SCALAR"},{"bufferView":20,"componentType":5126,"count":216,"max":[0.3125,0.15625,0.3125],"min":[-0.3125,-0.15625,-0.3125],"type":"VEC3"},{"bufferView":21,"componentType":5126,"count":216,"max":[1,1,1],"min":[-1,-1,-1],"type":"VEC3"},{"bufferView":22,"componentType":5126,"count":216,"max":[0.891226589679718,0.78125],"min":[0,0],"type":"VEC2"},{"bufferView":23,"componentType":5123,"count":288,"max":[215],"min":[0],"type":"SCALAR"},{"bufferView":24,"componentType":5126,"count":216,"max":[0.3125,0.15625,0.3125],"min":[-0.3125,-0.15625,-0.3125],"type":"VEC3"},{"bufferView":25,"componentType":5126,"count":216,"max":[1,1,1],"min":[-1,-1,-1],"type":"VEC3"},{"bufferView":26,"componentType":5126,"count":216,"max":[0.891226589679718,0.78125],"min":[0,0],"type":"VEC2"},{"bufferView":27,"componentType":5123,"count":288,"max":[215],"min":[0],"type":"SCALAR"}],"materials":[{"pbrMetallicRoughness":{"metallicFactor":0,"roughnessFactor":1,"baseColorTexture":{"index":0}},"alphaMode":"MASK","alphaCutoff":0.05,"doubleSided":true},{"pbrMetallicRoughness":{"metallicFactor":0,"roughnessFactor":1,"baseColorTexture":{"index":1}},"alphaMode":"MASK","alphaCutoff":0.05,"doubleSided":true},{"pbrMetallicRoughness":{"metallicFactor":0,"roughnessFactor":1,"baseColorTexture":{"index":2}},"alphaMode":"MASK","alphaCutoff":0.05,"doubleSided":true}],"textures":[{"sampler":0,"source":0,"name":"mirror_texture"},{"sampler":1,"source":1,"name":"body_texture"},{"sampler":2,"source":2,"name":"wheel_texture"}],"samplers":[{"magFilter":9728,"minFilter":9728,"wrapS":33071,"wrapT":33071},{"magFilter":9728,"minFilter":9728,"wrapS":33071,"wrapT":33071},{"magFilter":9728,"minFilter":9728,"wrapS":33071,"wrapT":33071}],"images":[{"mimeType":"image/png","uri":"data:image/png;base64,"},{"mimeType":"image/png","uri":"data:image/png;base64,"},{"mimeType":"image/png","uri":"data:image/png;base64,"}],"meshes":[{"primitives":[{"mode":4,"attributes":{"POSITION":0,"NORMAL":1,"TEXCOORD_0":2},"indices":3,"material":0}]},{"primitives":[{"mode":4,"attributes":{"POSITION":4,"NORMAL":5,"TEXCOORD_0":6},"indices":7,"material":0}]},{"primitives":[{"mode":4,"attributes":{"POSITION":8,"NORMAL":9,"TEXCOORD_0":10},"indices":11,"material":1}]},{"primitives":[{"mode":4,"attributes":{"POSITION":12,"NORMAL":13,"TEXCOORD_0":14},"indices":15,"material":2}]},{"primitives":[{"mode":4,"attributes":{"POSITION":16,"NORMAL":17,"TEXCOORD_0":18},"indices":19,"material":2}]},{"primitives":[{"mode":4,"attributes":{"POSITION":20,"NORMAL":21,"TEXCOORD_0":22},"indices":23,"material":2}]},{"primitives":[{"mode":4,"attributes":{"POSITION":24,"NORMAL":25,"TEXCOORD_0":26},"indices":27,"material":2}]}]}