<svg width="96" height="96" viewBox="0 0 96 96" fill="none" xmlns="http://www.w3.org/2000/svg">
<rect x="23.7209" y="58.7675" width="37.9535" height="14.2326" fill="#FFD230"/>
<rect x="64.0465" y="22" width="17.7907" height="14.2326" fill="#FFD230"/>
<path d="M21 22H35.4L53 73H38.6L21 22Z" fill="#FFD230"/>
<path d="M3 22H17.4L35 73H20.6L3 22Z" fill="#FFD230"/>
<path d="M39 22H53.4L71 73H56.6L39 22Z" fill="#FFD230"/>
<path d="M57 22H71.4L89 73H74.6L57 22Z" fill="#FFD230"/>
<path d="M75 22H89.5532L94 35L83.8936 48L79.4468 35L75 22Z" fill="#FFD230"/>
<path d="M7.00002 73.2325L17.6744 73.2325L12.3372 59L7.00002 73.2325Z" fill="#FFD230"/>
</svg>
