<svg width="96" height="96" viewBox="0 0 96 96" fill="none" xmlns="http://www.w3.org/2000/svg">
<g clip-path="url(#clip0_2016_13)">
<rect width="48" height="48" transform="translate(48 48)" fill="#101828"/>
<path d="M48 48L96 96V48H48Z" fill="#FFD230"/>
</g>
<g clip-path="url(#clip1_2016_13)">
<rect width="48" height="48" fill="#101828"/>
<path d="M0 0L48 48V0H0Z" fill="#FFD230"/>
</g>
<g clip-path="url(#clip2_2016_13)">
<rect width="48" height="48" transform="translate(48 96) rotate(-180)" fill="#101828"/>
<path d="M48 96L4.19629e-06 48L0 96L48 96Z" fill="#FFD230"/>
</g>
<g clip-path="url(#clip3_2016_13)">
<rect width="48" height="48" transform="translate(96 48) rotate(-180)" fill="#101828"/>
<path d="M96 48L48 -4.19629e-06L48 48L96 48Z" fill="#FFD230"/>
</g>
<defs>
<clipPath id="clip0_2016_13">
<rect width="48" height="48" fill="white" transform="translate(48 48)"/>
</clipPath>
<clipPath id="clip1_2016_13">
<rect width="48" height="48" fill="white"/>
</clipPath>
<clipPath id="clip2_2016_13">
<rect width="48" height="48" fill="white" transform="translate(48 96) rotate(-180)"/>
</clipPath>
<clipPath id="clip3_2016_13">
<rect width="48" height="48" fill="white" transform="translate(96 48) rotate(-180)"/>
</clipPath>
</defs>
</svg>
