<svg width="300" height="400" viewBox="0 0 300 400" fill="none" xmlns="http://www.w3.org/2000/svg">
<mask id="mask0_0_1" style="mask-type:alpha" maskUnits="userSpaceOnUse" x="-50" y="-4" width="400" height="392">
<g clip-path="url(#clip0_0_1)">
<path fill-rule="evenodd" clip-rule="evenodd" d="M130.2 9.64197C130.314 9.82597 129.944 9.95797 129.379 9.93597C126.954 9.83797 128.16 10.787 130.664 10.946C134.763 11.207 137.162 10.413 134.899 9.54497C133.95 9.17997 129.965 9.26297 130.2 9.64197ZM124.655 10.741C123.739 11.066 123.061 11.448 123.149 11.591C123.236 11.734 122.675 11.866 121.901 11.884C121.127 11.902 120.425 12.123 120.341 12.375C120.256 12.628 120.035 12.741 119.849 12.626C119.663 12.511 119.317 12.779 119.08 13.221C118.843 13.664 118.498 13.932 118.313 13.818C117.779 13.488 116.71 14.043 116.994 14.503C117.152 14.759 117.015 14.829 116.639 14.684C116.302 14.555 115.906 14.569 115.759 14.716C115.612 14.862 115.375 14.984 115.232 14.987C114.873 14.992 110.065 17.89 109.1 18.681C108.669 19.034 107.83 19.566 107.236 19.864C106.641 20.161 105.811 20.945 105.392 21.607C104.973 22.269 104.498 22.722 104.337 22.614C104.175 22.507 103.662 22.984 103.196 23.675C102.731 24.366 102.261 24.843 102.153 24.734C101.882 24.464 97.945 29.219 97.945 29.816C97.945 30.08 97.431 30.788 96.803 31.39C96.174 31.992 95.556 32.899 95.429 33.406C95.005 35.094 92.334 38.421 87.752 42.967C82.081 48.593 77.746 53.48 75.949 56.274C72.341 61.882 71.702 63.07 70.959 65.55C69.61 70.055 68.432 80.542 69.276 80.539C69.437 80.539 69.509 81.811 69.436 83.366C69.355 85.077 69.535 87.048 69.891 88.357C71.469 94.165 72.128 97.045 72.535 99.913C72.779 101.635 73.347 103.748 73.795 104.61C74.244 105.471 74.671 106.522 74.743 106.946C74.815 107.369 75.117 108.085 75.413 108.538C75.709 108.99 76.317 110.543 76.764 111.989C77.21 113.435 78.02 115.376 78.563 116.302C79.106 117.229 79.55 118.298 79.55 118.678C79.55 119.058 80.152 120.539 80.888 121.97C81.623 123.401 82.335 125.012 82.47 125.55C82.604 126.088 83.148 127.409 83.677 128.485C84.206 129.562 85.446 132.38 86.431 134.748C89.619 142.408 92.227 145.723 96.967 148.139C99.356 149.356 99.358 149.359 99.684 152.242C99.829 153.524 100.391 155.836 100.933 157.38C101.475 158.924 102.075 161.421 102.266 162.928C102.457 164.434 102.804 166.46 103.036 167.429C104.148 172.07 104.123 174.312 102.954 174.983C101.107 176.043 99.779 178.77 99.104 182.888C98.927 183.965 98.588 185.638 98.35 186.607C98.112 187.575 97.79 189.337 97.636 190.521C97.325 192.908 97.578 192.796 93.711 192.259C90.993 191.883 86.696 192.662 83.629 194.087C81.327 195.157 79.668 196.554 76.08 200.44C75.14 201.458 72.674 203.497 70.6 204.971C68.527 206.445 65.732 208.508 64.391 209.555C63.05 210.603 60.967 212.164 59.763 213.025C58.558 213.886 57.278 214.866 56.917 215.203C56.557 215.54 54.941 216.885 53.327 218.192C49.731 221.104 45.046 225.926 42.755 229.072C41.814 230.364 39.611 233.094 37.858 235.139C23.751 251.595 18.054 262.161 14.96 277.605C11.174 296.507 10.483 304.592 11.949 312.83C12.332 314.982 12.835 317.8 13.067 319.092C13.466 321.317 14.526 325.205 16.162 330.442C17.241 333.897 18.493 338.895 18.493 339.747C18.493 340.519 19.486 344.265 21.099 349.574C22.182 353.142 22.608 353.807 27.021 358.818C31.808 364.254 31.904 364.675 31.203 377.213C31.013 380.603 31.082 382.917 31.428 384.748L31.926 387.389H71.74H111.554L112.214 386.382C112.938 385.276 117.944 382.693 119.363 382.693C120.517 382.693 120.577 384.41 119.472 385.824C119.051 386.362 118.702 386.934 118.698 387.096C118.693 387.257 130.819 387.389 145.644 387.389H172.6L172.831 385.53C172.959 384.508 172.829 381.822 172.544 379.562C172.259 377.301 172.103 375.316 172.197 375.149C172.29 374.982 171.847 373.221 171.212 371.235C170.577 369.249 169.498 365.775 168.816 363.515C168.133 361.254 167.226 358.745 166.799 357.937C165.88 356.198 166.124 356.122 168.207 357.503C175.852 362.57 180.473 372.8 180.073 383.77L179.941 387.391L185.225 387.389L190.509 387.388L191.93 383.573C199.484 363.292 199.877 362.945 200.689 375.843C201.057 381.703 201.033 382.033 200.118 383.533C199.678 384.255 199.317 385.418 199.317 386.117L199.315 387.389H203.381H207.447L207.694 386.074C207.93 384.816 205.215 377.294 203.995 375.824C202.591 374.131 202.95 369.25 205.002 362.145C205.499 360.423 206.347 356.881 206.885 354.274C207.553 351.044 208.365 348.489 209.436 346.251C218.374 327.574 219.529 322.521 216.626 314.787C213.287 305.89 198.839 294.751 190.117 294.349C184.683 294.099 184.66 294.116 178.631 303.305C176.984 305.815 174.574 309.25 173.277 310.937C171.98 312.624 169.905 315.677 168.666 317.722C165.743 322.549 165.642 322.714 164.437 324.565C163.874 325.43 162.344 328.023 161.038 330.327C158.225 335.291 154.485 340.996 152.396 343.51C149.476 347.026 149.467 347.331 152.254 348.276C154.58 349.065 154.639 349.407 152.648 350.599C151.75 351.137 149.894 352.702 148.524 354.076C147.154 355.451 145.297 357.189 144.396 357.939C142.151 359.808 135.301 366.16 131.299 370.084C128.57 372.76 126.13 374.474 125.05 374.474C124.701 374.474 125.3 372.175 126.115 370.385C127.621 367.081 126.932 364.023 124.639 363.83C121.933 363.603 121.506 359.249 123.893 356.215C124.804 355.057 121.185 341.378 118.679 336.509C116.184 331.659 115.965 330.271 117.432 328.583C118.774 327.039 121.533 328.519 123.079 331.612C123.726 332.906 124.675 334.525 125.19 335.211C125.704 335.896 126.125 336.59 126.125 336.753C126.125 337.47 129.408 342.395 129.799 342.265C130.571 342.008 130.873 337.297 130.664 328.793C130.445 319.914 130.562 319.322 132.225 320.885C133.267 321.864 133.757 323.363 134.169 326.833C134.712 331.407 138.608 330.365 141.33 324.917C141.773 324.031 142.572 322.786 143.106 322.151C143.641 321.516 144.376 320.252 144.74 319.343C145.705 316.93 145.951 317.109 148.013 321.734C149.892 325.946 152.619 324.954 156.957 318.482C157.615 317.501 158.461 316.445 158.838 316.134C159.215 315.824 160.109 314.655 160.826 313.537C161.542 312.419 162.607 311.275 163.191 310.993C165.134 310.058 166.615 307.054 166.503 304.277C166.449 302.954 166.345 298.789 166.272 295.022C166.199 291.254 166.033 287.738 165.904 287.207C165.774 286.676 165.312 283.682 164.877 280.553C164.443 277.425 163.919 274.049 163.714 273.051C163.51 272.053 163.443 270.614 163.567 269.852C163.958 267.439 163.02 264.775 160.619 261.484C156.291 255.55 155.746 254.596 155.437 252.4C155.025 249.472 150.183 244.825 142.228 239.72C138.347 237.229 124.951 225.008 124.951 223.957C124.951 223.109 125.571 223.279 126.992 224.517C127.699 225.133 128.806 225.934 129.452 226.297C130.098 226.66 131.531 227.609 132.636 228.406C139.306 233.214 142.45 235.47 143.93 236.509C146.618 238.395 152.165 242.56 155.789 245.413C159.97 248.704 160.087 248.684 162.245 244.337C163.929 240.944 166.142 236.923 166.661 236.313C166.936 235.99 167.486 234.933 167.884 233.965C168.282 232.996 169.39 230.706 170.348 228.877C171.305 227.047 172.393 224.779 172.766 223.837C173.14 222.895 173.875 221.486 174.4 220.706C176.151 218.106 176.122 216.581 174.299 215.507C172.607 214.51 167.617 211.213 166.047 210.055C164.476 208.896 157.66 205.264 145.898 199.32C131.48 192.032 124.965 188.639 121.624 186.677C120.117 185.792 118.18 184.727 117.319 184.31C116.458 183.894 115.147 183.095 114.405 182.536C113.664 181.976 112.769 181.519 112.418 181.519C111.601 181.519 108.121 179.228 108.121 178.691C108.121 177.983 113.756 179.226 114.79 180.163C115.54 180.841 115.602 180.833 116.635 179.92C118.213 178.524 118.279 178.362 118.026 176.517C117.655 173.812 118.965 170.35 120.212 170.738C123.979 171.911 130.499 171.146 131.388 169.426C131.678 168.865 132.289 168.068 132.745 167.655C133.201 167.243 133.682 166.226 133.815 165.397C133.947 164.567 134.209 163.794 134.396 163.679C134.896 163.37 134.801 161.966 134.16 160.188C133.85 159.327 133.586 158.006 133.573 157.252C133.548 155.73 132.846 153.547 131.627 151.201C131.184 150.348 130.822 149.359 130.822 149.003C130.822 148.647 130.493 147.936 130.09 147.423C128.739 145.699 128.328 141.925 128.945 136.9C129.194 134.88 129.103 133.792 128.506 131.616C126.766 125.271 126.222 124.312 121.624 119.462C117.684 115.306 117.349 114.784 115.99 110.672C114.492 106.137 110.897 103.052 110.851 106.262C110.845 106.645 110.674 108.677 110.469 110.777C110.129 114.278 109.823 115.363 107.816 120.195C106.765 122.727 104.684 123.413 102.989 121.789C101.067 119.947 100.598 121.183 101.859 124.767C102.276 125.951 102.622 127.794 102.629 128.862C102.64 130.582 102.817 130.985 104.173 132.384C105.015 133.254 106.179 135.11 106.76 136.509C108.002 139.503 110.199 143.379 111.374 144.648C112.036 145.363 112.217 146.084 112.257 148.171C112.286 149.614 112.58 151.587 112.911 152.556C114.74 157.908 113.042 158.064 110.483 152.778C109.714 151.191 109.472 150.99 108.325 150.99C106.54 150.99 105.402 149.941 105.141 148.055C104.674 144.673 103.384 143.36 101.944 144.8C101.145 145.598 100.989 144.866 101.486 142.648C102.014 140.286 101.79 138.673 100.884 138.326C99.582 137.826 99.119 138.477 99.119 140.808C99.119 143.923 98.487 144.427 96.141 143.182C89.563 139.693 83.835 123.293 87.371 118.075C88.724 116.076 88.842 115.374 87.822 115.374C86.624 115.374 85.135 116.832 84.42 118.705C83.619 120.801 83.737 120.774 82.296 119.19C80.78 117.524 80.678 113.417 82.152 113.417C83.229 113.417 83.108 112.293 81.728 109.502C80.961 107.948 80.333 106.344 80.333 105.937C80.333 105.531 80.145 105.198 79.917 105.198C79.688 105.198 79.532 105.506 79.57 105.883C79.733 107.483 79.599 107.591 78.278 106.922C75.895 105.715 75.636 105.288 75.636 102.574C75.636 101.197 75.878 99.595 76.174 99.014C77.987 95.453 80.3 87.005 79.643 86.347C79.121 85.826 76.02 86.847 75.228 87.801C74.969 88.113 74.603 88.368 74.414 88.368C73.841 88.368 74.03 86.54 74.658 86.02C75.375 85.424 75.495 79.773 74.805 79.082C74.382 78.66 79.692 71.362 81.797 69.472C82.224 69.089 82.886 68.08 83.269 67.23C83.653 66.38 84.249 65.584 84.596 65.46C84.942 65.336 86.106 63.994 87.182 62.477C88.258 60.96 89.711 59.054 90.411 58.242C91.111 57.431 91.683 56.479 91.683 56.129C91.683 55.423 90.699 55.258 90.303 55.898C90.165 56.122 89.339 56.756 88.468 57.305C87.597 57.855 86.242 58.949 85.457 59.736C84.672 60.523 83.066 62.047 81.888 63.123C79.186 65.592 76.027 69.465 76.027 70.311C76.027 70.666 75.059 71.956 73.875 73.178C72.691 74.401 71.722 75.655 71.722 75.966C71.722 76.606 70.642 77.633 70.314 77.305C70.196 77.187 70.371 76.564 70.704 75.921C71.036 75.278 71.423 74.036 71.563 73.161C71.713 72.221 72.68 70.245 73.926 68.328C75.086 66.545 76.133 64.776 76.253 64.398C76.373 64.02 76.625 63.71 76.812 63.71C76.999 63.71 77.969 62.492 78.968 61.003C79.967 59.514 82.057 56.916 83.611 55.23C85.166 53.544 86.837 51.592 87.326 50.892C87.814 50.193 88.471 49.62 88.785 49.62C89.099 49.62 92.128 46.828 95.516 43.416C98.903 40.003 102.288 36.895 103.039 36.509C103.789 36.122 104.948 35.391 105.614 34.885C106.28 34.379 107.261 33.965 107.794 33.965C108.357 33.965 109.807 33.157 111.253 32.038C112.623 30.978 114.019 30.127 114.357 30.148C114.694 30.169 116.468 29.522 118.297 28.709C120.127 27.897 122.701 27.078 124.016 26.89C125.332 26.701 127.24 26.19 128.256 25.755C129.273 25.319 130.499 24.963 130.982 24.963C131.896 24.963 133.562 23.493 133.562 22.687C133.562 22.051 132.42 22.109 131.071 22.813C130.454 23.134 129.133 23.405 128.135 23.414C127.137 23.424 125.667 23.665 124.867 23.951C124.068 24.236 123.319 24.375 123.204 24.259C122.845 23.901 122.974 22.614 123.368 22.614C124.297 22.614 126.434 20.765 126.11 20.241C125.927 19.945 125.656 19.823 125.508 19.97C125.36 20.118 124.91 20.062 124.508 19.847C124.001 19.576 123.777 19.587 123.777 19.884C123.777 20.12 123.591 20.198 123.365 20.058C122.808 19.714 123.12 18.897 123.81 18.892C124.152 18.889 124.319 18.565 124.247 18.043C124.098 16.97 125.259 17.192 126.677 18.507C127.208 18.999 127.73 19.314 127.836 19.208C127.943 19.101 128.614 18.967 129.328 18.91C130.042 18.852 131.243 18.579 131.996 18.302C132.75 18.026 133.586 17.743 133.855 17.675C134.124 17.607 134.344 17.278 134.344 16.944C134.344 16.266 132.302 16.413 132.071 17.107C131.989 17.353 131.59 17.352 130.94 17.105C130.388 16.895 129.617 16.825 129.229 16.948C128.774 17.092 128.38 16.909 128.127 16.436C127.844 15.908 127.865 15.688 128.201 15.656C130.122 15.477 131.862 15.253 132.192 15.143C132.407 15.071 132.975 15.229 133.455 15.495C134.227 15.924 134.297 15.9 134.067 15.285C133.793 14.556 134.889 15.175 135.61 16.157C135.772 16.376 135.901 16.237 135.904 15.84C135.907 15.45 136.067 15.229 136.259 15.347C136.45 15.466 136.898 15.119 137.254 14.576C137.893 13.601 137.888 13.592 136.905 13.839C136.166 14.025 135.91 13.936 135.91 13.494C135.91 12.848 130.338 12.704 129.381 13.325C129.127 13.49 128.808 13.446 128.673 13.228C128.538 13.009 127.733 12.83 126.885 12.83C125.82 12.83 125.342 12.659 125.342 12.279C125.342 11.913 125.617 11.801 126.165 11.944C127.063 12.179 127.741 11.459 127.417 10.615C127.17 9.97097 126.78 9.98897 124.655 10.741ZM136.693 10.403C136.693 11.006 137.64 11.656 138.52 11.656C139.009 11.656 140.036 12.008 140.802 12.438C142.333 13.298 143.011 13.392 144.037 12.886C144.41 12.701 145.245 12.284 145.89 11.959C146.536 11.634 147.313 11.457 147.616 11.565C147.991 11.699 148.092 11.565 147.932 11.147C147.802 10.809 147.906 10.446 148.163 10.342C148.515 10.199 148.516 10.144 148.169 10.121C147.915 10.104 147.452 10.346 147.139 10.658C146.826 10.971 146.462 11.118 146.328 10.985C146.195 10.851 146.086 10.931 146.086 11.162C146.086 11.393 145.76 11.497 145.362 11.393C144.963 11.289 144.369 11.472 144.04 11.8C143.483 12.358 141.781 12.544 141.781 12.048C141.781 11.634 139.434 10.434 139.067 10.661C138.867 10.784 138.593 10.707 138.458 10.488C138.168 10.019 136.693 9.94797 136.693 10.403ZM154.044 10.694C154.044 11.061 154.267 11.212 154.613 11.08C155.02 10.923 155.127 11.072 154.989 11.6C154.836 12.186 154.96 12.296 155.59 12.131C156.13 11.99 156.294 12.07 156.103 12.38C155.948 12.631 156.118 13.133 156.481 13.496C157.292 14.307 158.618 14.479 158.333 13.736C158.2 13.389 158.337 13.291 158.738 13.445C159.071 13.573 159.257 13.904 159.15 14.182C158.842 14.985 161.051 15.265 161.64 14.497C162.291 13.649 162.06 13.511 160.795 13.992C160.109 14.253 159.824 14.256 159.981 14.003C160.114 13.788 160.043 13.613 159.824 13.613C159.604 13.613 158.994 13.147 158.466 12.579C157.899 11.967 157.266 11.637 156.916 11.772C156.581 11.9 155.877 11.584 155.295 11.044C154.081 9.91997 154.044 9.90897 154.044 10.694ZM167.488 13.511C166.441 14.23 166.049 14.751 166.179 15.25C166.282 15.641 166.206 15.863 166.01 15.743C165.815 15.622 165.656 15.695 165.656 15.904C165.656 16.113 164.785 15.967 163.722 15.578C161.612 14.807 161.174 14.901 161.761 15.997C162.04 16.518 162.54 16.693 163.606 16.64C164.41 16.601 165.316 16.723 165.618 16.912C166.02 17.163 166.082 17.116 165.848 16.738C165.615 16.361 165.706 16.288 166.178 16.469C166.537 16.607 166.83 16.568 166.83 16.384C166.83 16.008 169.07 15.592 169.387 15.909C169.803 16.325 170.717 16.265 170.634 15.827C170.587 15.578 170.75 15.412 170.997 15.458C171.63 15.577 171.185 14.107 170.509 13.848C170.172 13.718 169.956 13.896 169.948 14.31C169.937 14.923 169.887 14.918 169.388 14.259C169.087 13.862 168.935 13.289 169.051 12.987C169.325 12.275 169.256 12.297 167.488 13.511ZM122.799 13.613C123.046 14.012 121.464 14.787 120.402 14.787C119.625 14.787 120.118 14.036 121.175 13.61C122.306 13.154 122.515 13.154 122.799 13.613ZM167.808 14.004C167.675 14.219 167.851 14.395 168.2 14.395C168.548 14.395 168.719 14.58 168.579 14.806C168.406 15.087 168.153 15.073 167.778 14.761C167.29 14.357 167.34 13.613 167.854 13.613C167.962 13.613 167.941 13.789 167.808 14.004ZM173.191 14.181C173.353 14.371 173.199 14.844 172.849 15.231C172.255 15.887 172.279 15.964 173.206 16.386C173.753 16.635 174.291 17.188 174.402 17.614C174.525 18.083 174.786 18.276 175.064 18.104C175.411 17.89 175.404 17.746 175.034 17.517C174.68 17.299 174.75 17.161 175.286 17.024C175.914 16.863 175.893 16.828 175.147 16.789C174.493 16.755 174.266 16.504 174.266 15.813C174.266 15.301 173.958 14.647 173.581 14.358C173.205 14.07 173.029 13.99 173.191 14.181ZM123.359 16.486C122.741 17.023 121.037 17.094 121.037 16.583C121.037 15.953 122.591 15.551 123.164 16.032C123.365 16.201 123.453 16.405 123.359 16.486ZM181.016 21.538C181.207 22.12 182.877 22.445 182.877 21.901C182.877 21.521 181.973 21.049 181.247 21.049C181.031 21.049 180.927 21.269 181.016 21.538ZM117.219 22.809C117.374 23.62 117.116 23.979 115.711 24.909C114.78 25.527 114.144 26.171 114.298 26.342C114.453 26.513 114.276 26.544 113.906 26.412C113.534 26.278 112.97 26.432 112.648 26.755C112.326 27.076 111.966 27.319 111.847 27.295C111.101 27.145 109.265 27.873 108.651 28.563C108.252 29.012 107.133 29.755 106.164 30.215C104.378 31.062 102.932 31.909 100.97 33.256C100.374 33.666 99.715 33.895 99.506 33.766C99.086 33.507 99.054 33.556 101.552 30.628C102.474 29.547 103.545 28.226 103.932 27.693C104.319 27.16 104.526 26.988 104.392 27.311C104.259 27.634 104.427 27.556 104.765 27.139C105.104 26.721 105.387 26.545 105.395 26.747C105.402 26.95 105.754 26.7 106.177 26.191C106.601 25.683 106.947 25.395 106.947 25.552C106.947 25.708 107.381 25.551 107.912 25.204C108.442 24.856 109.235 24.571 109.673 24.571C110.111 24.571 110.47 24.318 110.47 24.007C110.47 23.195 111.01 22.966 113.418 22.76C114.767 22.644 115.558 22.728 115.558 22.987C115.558 23.213 115.754 23.397 115.995 23.397C116.239 23.397 116.342 23.052 116.227 22.614C116.101 22.13 116.215 21.832 116.527 21.832C116.805 21.832 117.116 22.272 117.219 22.809ZM186.399 23.948C186.399 24.304 186.673 24.427 187.178 24.295C187.606 24.183 187.859 23.935 187.742 23.744C187.4 23.191 186.399 23.343 186.399 23.948ZM110.078 26.528C110.078 26.744 110.342 26.92 110.665 26.92C110.988 26.92 111.252 26.744 111.252 26.528C111.252 26.313 110.988 26.137 110.665 26.137C110.342 26.137 110.078 26.313 110.078 26.528ZM197.974 35.4C197.833 35.768 198.08 36.312 198.586 36.751C199.666 37.688 199.714 37.678 199.62 36.552C199.521 35.352 198.316 34.509 197.974 35.4ZM105.244 43.793C104.233 44.462 103.209 45.387 102.968 45.847C102.726 46.308 101.938 47.346 101.216 48.154C99.879 49.648 99.576 50.403 100.311 50.403C100.879 50.403 107.73 43.598 107.73 43.034C107.73 42.324 107.232 42.476 105.244 43.793ZM202.499 48.887C202.545 50.003 202.584 50.056 202.755 49.229L202.957 48.25L203.25 49.229C203.511 50.101 203.547 50.117 203.581 49.375C203.603 48.917 203.356 48.323 203.033 48.055C202.53 47.637 202.454 47.756 202.499 48.887ZM203.804 51.988C203.513 52.459 203.95 53.926 204.382 53.926C205.263 53.926 205.522 52.878 204.794 52.255C204.352 51.876 203.942 51.766 203.804 51.988ZM204.99 54.317C205.123 54.532 204.922 54.708 204.544 54.708C204.031 54.708 203.968 54.822 204.299 55.152C204.542 55.396 205.018 55.489 205.355 55.36C206.15 55.055 206.153 53.926 205.359 53.926C205.023 53.926 204.857 54.102 204.99 54.317ZM204.97 57.305C205.002 57.893 205.258 58.451 205.539 58.544C205.912 58.669 205.975 58.464 205.77 57.788C205.341 56.372 204.907 56.11 204.97 57.305ZM204.568 63.544C204.423 64.313 204.47 65.108 204.672 65.31C204.901 65.539 205.074 65.01 205.131 63.911C205.24 61.796 204.933 61.596 204.568 63.544ZM79.163 70.359C77.825 72.048 77.263 72.513 76.946 72.196C76.702 71.952 79.603 68.8 80.072 68.799C80.252 68.799 79.842 69.5 79.163 70.359ZM202.178 71.389C201.941 72.007 202.384 72.797 202.817 72.529C202.992 72.421 203.22 72.007 203.324 71.609C203.541 70.78 202.49 70.578 202.178 71.389ZM200.881 86.705C200.881 87.009 201.09 87.189 201.345 87.104C202.055 86.868 202.155 86.15 201.479 86.15C201.15 86.15 200.881 86.4 200.881 86.705ZM205.51 96.39C205.654 99.666 206.751 100.878 206.751 97.761C206.751 96.9 206.575 96.196 206.36 96.196C206.145 96.196 205.969 95.579 205.969 94.826C205.969 94.072 205.837 93.456 205.675 93.455C205.514 93.455 205.44 94.775 205.51 96.39ZM206.451 94.63C206.451 95.384 206.531 95.692 206.63 95.315C206.728 94.938 206.728 94.322 206.63 93.945C206.531 93.568 206.451 93.877 206.451 94.63ZM199.706 95.405C199.706 95.625 199.883 95.804 200.098 95.804C200.313 95.804 200.489 96.157 200.489 96.587C200.489 97.022 200.75 97.37 201.076 97.37C201.749 97.37 201.861 97.984 201.256 98.358C200.847 98.611 200.97 99.38 201.737 101.382C202.529 103.448 204.273 102.15 203.538 100.041C203.326 99.433 202.993 98.935 202.799 98.935C202.605 98.935 202.467 98.803 202.493 98.642C202.518 98.48 202.506 98.26 202.466 98.153C202.425 98.045 202.326 97.453 202.246 96.837C202.072 95.516 202.143 95.591 200.783 95.265C200.144 95.112 199.706 95.169 199.706 95.405ZM121.124 100.327C120.016 101.103 116.594 101.999 115.453 101.812C114.068 101.585 112.879 102.687 113.663 103.471C114.376 104.184 117.819 103.404 119.107 102.238C119.48 101.9 120.439 101.563 121.238 101.489C122.996 101.325 123.854 100.645 122.991 100.099C122.216 99.609 122.136 99.619 121.124 100.327ZM208.962 101.861C208.841 102.175 208.893 102.526 209.076 102.639C209.259 102.752 209.508 102.587 209.629 102.273C209.75 101.958 209.698 101.608 209.515 101.494C209.332 101.381 209.083 101.546 208.962 101.861ZM208.46 103.156C208.606 103.391 208.414 103.758 208.035 103.97C207.656 104.182 207.447 104.459 207.573 104.584C207.698 104.709 208.104 104.475 208.475 104.065C208.983 103.504 209.032 103.245 208.673 103.023C208.378 102.841 208.297 102.892 208.46 103.156ZM204.4 105.789C204.003 106.267 204.028 106.7 204.526 108.04C204.865 108.952 205.261 110.403 205.404 111.264C205.547 112.125 205.865 113.006 206.11 113.221C206.407 113.482 206.556 115.632 206.556 119.679C206.556 123.016 206.68 126.831 206.831 128.157C207.052 130.088 206.993 130.612 206.538 130.786C205.598 131.147 205.758 135.194 206.733 135.716C207.637 136.2 208.183 134.332 207.81 132.032C207.694 131.316 207.785 130.544 208.013 130.316C208.662 129.667 208.909 115.463 208.297 114.004C208.025 113.358 207.844 112.51 207.893 112.12C207.943 111.73 207.732 111.025 207.425 110.555C207.117 110.084 206.931 109.279 207.01 108.767C207.089 108.254 206.977 107.622 206.76 107.361C206.544 107.1 206.479 106.775 206.615 106.639C206.948 106.306 205.999 105.198 205.382 105.198C205.111 105.198 204.669 105.464 204.4 105.789ZM205.871 140.454C205.326 140.772 205.186 141.392 205.186 143.495C205.186 144.948 204.998 146.325 204.768 146.555C204.101 147.222 204.481 149.925 205.257 150.036C205.68 150.097 205.839 149.935 205.704 149.582C205.588 149.28 205.664 149.033 205.873 149.033C206.082 149.033 206.246 148.637 206.237 148.153C206.229 147.668 206.433 146.535 206.691 145.635C207.158 144.002 207.227 140.021 206.787 140.043C206.66 140.05 206.248 140.235 205.871 140.454ZM203.824 151.067C203.685 151.563 203.383 152.353 203.152 152.823C202.922 153.293 202.839 153.953 202.969 154.291C203.226 154.962 204.403 155.144 204.403 154.513C204.403 153.748 204.475 153.528 204.883 153.037C205.308 152.525 205.695 150.35 205.289 150.757C205.164 150.881 204.841 150.8 204.57 150.575C204.204 150.271 204.012 150.398 203.824 151.067ZM202.316 155.948C202.172 156.091 202.055 156.584 202.055 157.044C202.055 157.503 201.851 158.083 201.602 158.332C201.302 158.631 201.277 158.956 201.528 159.291C201.867 159.743 201.897 160.047 201.706 161.068C201.676 161.23 201.505 161.131 201.326 160.849C201.082 160.464 200.835 160.591 200.33 161.362C199.519 162.599 199.65 163.651 200.638 163.841C201.089 163.928 201.264 163.818 201.1 163.552C200.954 163.316 200.982 163.123 201.163 163.123C201.593 163.123 202.482 160.759 202.215 160.326C202.101 160.142 202.206 159.992 202.446 159.992C202.687 159.992 202.775 159.816 202.642 159.601C202.509 159.386 202.573 159.209 202.784 159.209C203.492 159.209 204.18 156.426 203.568 156.038C202.918 155.626 202.656 155.607 202.316 155.948ZM200.306 164.669C200.162 164.902 199.853 164.975 199.62 164.831C199.023 164.462 198.184 165.747 198.424 166.664C198.55 167.146 198.426 167.43 198.089 167.432C197.248 167.436 196.522 169.337 197.012 170.252C197.237 170.673 197.457 170.959 197.501 170.887C197.544 170.814 197.838 170.413 198.154 169.995C198.661 169.324 198.659 169.27 198.141 169.535C197.818 169.7 197.872 169.575 198.26 169.258C198.649 168.941 198.994 168.311 199.028 167.859C199.062 167.407 199.224 167.037 199.388 167.037C199.767 167.037 201.001 164.679 200.753 164.431C200.651 164.329 200.45 164.436 200.306 164.669ZM193.642 174.779C193.213 175.365 192.905 175.976 192.957 176.137C193.01 176.298 192.921 176.41 192.759 176.384C191.875 176.245 191.081 176.481 191.291 176.821C191.431 177.047 191.151 177.171 190.629 177.115C190.091 177.057 189.764 177.21 189.819 177.493C189.873 177.767 189.667 177.874 189.33 177.744C189.01 177.622 188.748 177.728 188.748 177.982C188.748 178.532 187.78 179.562 187.263 179.562C187.062 179.562 186.433 180.232 185.865 181.05C184.813 182.569 184.493 184.258 185.258 184.258C185.491 184.258 185.601 184.478 185.502 184.748C185.404 185.017 185.13 185.195 184.894 185.143C184.346 185.023 183.544 186.495 183.871 187.023C184.007 187.244 183.85 187.834 183.521 188.335C182.862 189.341 183.047 190.743 183.881 191.063C184.538 191.316 184.98 190.684 184.685 189.915C184.565 189.602 184.656 189.346 184.888 189.346C185.119 189.346 185.21 189.088 185.088 188.772C184.967 188.456 185.048 188.086 185.268 187.95C185.487 187.814 185.631 187.236 185.587 186.666C185.542 186.095 185.686 185.188 185.907 184.65C186.127 184.112 186.23 183.539 186.134 183.378C186.039 183.216 186.178 183.084 186.441 183.084C186.705 183.084 186.818 182.981 186.692 182.855C186.566 182.73 186.757 182.284 187.116 181.864C187.475 181.445 187.695 181.064 187.605 181.017C187.301 180.859 188.38 179.17 188.784 179.17C189.005 179.17 189.073 179.39 188.937 179.659C188.8 179.929 189.019 179.775 189.425 179.319C189.83 178.862 190.548 178.366 191.02 178.216C191.492 178.066 191.879 177.769 191.879 177.555C191.879 177.342 192.026 177.258 192.205 177.369C192.385 177.48 193.309 176.76 194.26 175.77C195.211 174.779 195.768 174.093 195.499 174.244C195.23 174.396 195.01 174.333 195.01 174.105C195.01 173.397 194.456 173.67 193.642 174.779ZM106.593 177.846C107.047 178.393 107.018 178.458 106.38 178.335C105.974 178.256 105.569 177.972 105.479 177.703C105.247 177.004 105.972 177.097 106.593 177.846ZM183.065 193.021C182.498 193.887 182.516 194.078 183.315 195.61C185.23 199.285 184.869 209.807 182.677 214.195C182.034 215.484 181.456 216.648 181.394 216.783C181.332 216.918 181.85 217.263 182.544 217.551C184.322 218.287 188.316 221.698 188.857 222.942C189.106 223.515 189.888 224.758 190.594 225.704C191.301 226.65 191.879 227.729 191.879 228.102C191.879 228.476 192.167 229.02 192.519 229.312C192.872 229.605 193.499 230.639 193.914 231.611C195.211 234.648 196.351 235.53 198.977 235.53C203.746 235.53 207.09 237.063 210.31 240.724C212.449 243.157 213.677 244.193 215.328 244.957C217.907 246.149 221.003 249.883 223.416 254.708C224.223 256.323 225.458 258.362 226.161 259.24C228.957 262.736 229.189 263.577 228.89 269.111C228.673 273.134 228.738 274.409 229.232 275.795C230.049 278.082 230.003 280.06 229.022 284.901C228.57 287.131 227.968 290.276 227.684 291.89C227.399 293.505 226.651 296.323 226.021 298.153C225.391 299.982 224.76 302.746 224.619 304.294C224.478 305.843 224.099 308.364 223.776 309.897C223.454 311.431 223.19 313.301 223.19 314.053C223.19 314.865 223.031 315.322 222.798 315.178C222.583 315.045 222.407 314.418 222.407 313.785C222.407 311.947 221.805 312.447 221.061 314.904C220.251 317.578 221.247 322.35 222.564 322.108C223.034 322.022 223.19 322.313 223.189 323.282C223.187 328.917 225.031 337.207 228.905 348.98C229.852 351.857 230.626 354.464 230.626 354.772C230.626 355.081 231.04 355.721 231.545 356.195C232.738 357.313 233.366 358.531 233.366 359.723C233.366 360.249 233.608 360.88 233.903 361.125C234.198 361.37 234.53 362.371 234.64 363.35C234.759 364.401 235.18 365.49 235.669 366.01C236.124 366.495 236.497 367.067 236.497 367.281C236.497 370.517 238.474 368.322 239.251 364.223C239.613 362.312 240.416 361.2 242.178 360.169C242.953 359.716 243.87 357.132 244.117 354.708C244.204 353.847 244.464 351.734 244.695 350.012C244.925 348.29 245.276 344.855 245.476 342.38C245.96 336.359 247.336 332.966 248.084 335.947C248.219 336.484 248.793 337.452 249.36 338.099C250.074 338.913 250.391 339.717 250.391 340.715C250.391 342.107 250.448 342.165 252.081 342.447C258.704 343.592 262.794 350.174 259.98 355.16C258.743 357.353 258.574 357.834 259.171 357.465C259.655 357.165 260.098 357.92 259.759 358.468C259.572 358.772 259.395 358.746 259.17 358.382C258.787 357.761 258.476 358 258.315 359.037C258.25 359.455 258.056 360.061 257.884 360.384C257.713 360.706 257.922 360.574 258.35 360.09C258.778 359.606 259.301 359.209 259.512 359.209C259.724 359.209 260.008 358.92 260.143 358.566C260.279 358.213 260.505 358.038 260.646 358.178C260.943 358.476 262.72 356.906 262.72 356.347C262.72 356.139 263.028 355.716 263.405 355.407C263.853 355.04 263.887 354.934 263.503 355.1C262.988 355.322 262.988 355.29 263.508 354.835C264.882 353.632 265.727 348.704 264.671 348.051C264.452 347.916 264.367 347.653 264.481 347.468C264.596 347.282 264.508 347.018 264.286 346.881C264.063 346.743 263.979 346.473 264.098 346.28C264.363 345.852 263.065 343.259 262.047 342.184C261.64 341.753 261.316 341.313 261.327 341.205C261.375 340.743 255.342 331.31 254.761 330.94C254.51 330.78 254.435 330.647 254.593 330.644C254.751 330.641 254.541 329.777 254.126 328.724C253.711 327.671 253.472 326.71 253.593 326.588C253.715 326.466 253.677 326.051 253.509 325.665C253.341 325.279 253.239 324.743 253.282 324.474C253.326 324.205 253.216 323.984 253.039 323.984C252.862 323.984 252.757 323.28 252.805 322.419C252.853 321.558 252.75 320.853 252.577 320.853C252.403 320.853 252.346 320.412 252.449 319.873C252.552 319.333 252.473 318.673 252.274 318.405C252.074 318.137 251.953 317.125 252.003 316.157C252.054 315.188 251.926 313.622 251.718 312.676C251.181 310.225 251.004 309.003 250.577 304.806C250.369 302.761 250.083 300.648 249.941 300.11C249.798 299.571 249.695 298.559 249.712 297.859C249.728 297.159 249.561 296.587 249.34 296.587C249.119 296.587 249.045 296.307 249.177 295.965C249.308 295.622 249.285 295.138 249.127 294.888C248.968 294.639 248.813 294.126 248.783 293.75C248.753 293.373 248.692 293.021 248.649 292.967C248.553 292.848 248.335 291.969 247.51 288.375C247.288 287.41 246.94 286.565 246.736 286.497C246.532 286.429 246.448 286.056 246.549 285.668C246.651 285.28 246.464 284.693 246.135 284.363C245.806 284.034 245.638 283.663 245.762 283.539C245.886 283.415 245.849 282.998 245.681 282.612C245.513 282.226 245.403 281.778 245.437 281.616C245.471 281.455 245.313 281.323 245.085 281.323C244.857 281.323 244.781 281.143 244.917 280.924C245.052 280.704 244.94 279.868 244.667 279.065C244.394 278.262 244.159 277.429 244.144 277.213C244.1 276.551 243.08 273.755 242.43 272.517C241.725 271.173 241.787 271.344 241.396 269.685C241.233 268.989 240.946 268.514 240.759 268.629C240.573 268.745 240.525 268.566 240.653 268.232C240.788 267.879 240.677 267.624 240.388 267.624C240.113 267.624 240.004 267.51 240.144 267.369C240.284 267.229 240.093 266.864 239.72 266.558C239.267 266.186 239.236 266.085 239.628 266.254C239.951 266.394 239.873 266.231 239.456 265.892C239.038 265.553 238.818 265.276 238.968 265.276C239.331 265.276 232.2 251.027 231.753 250.859C231.561 250.787 231.504 250.565 231.627 250.367C231.75 250.169 231.576 249.901 231.24 249.772C230.905 249.644 230.724 249.387 230.838 249.202C230.953 249.017 230.702 248.522 230.282 248.102C229.861 247.681 229.608 247.247 229.718 247.136C229.829 247.025 229.55 246.704 229.099 246.422C228.647 246.14 228.278 245.707 228.278 245.458C228.278 245.21 228.003 244.902 227.666 244.773C227.329 244.643 227.16 244.367 227.289 244.158C227.588 243.674 226.119 242.184 225.342 242.184C225.02 242.184 224.755 242.025 224.755 241.83C224.755 241.635 222.862 240.203 220.548 238.648C218.234 237.092 215.636 235.262 214.775 234.58C212.214 232.553 203.243 226.756 200.275 225.211C196.348 223.167 194.027 220.932 193.308 218.505C192.99 217.429 191.996 214.523 191.1 212.047C190.204 209.571 188.95 205.697 188.313 203.436C185.143 192.194 184.476 190.868 183.065 193.021ZM190.143 227.662C189.625 228.499 191.338 234.367 192.268 234.942C193.918 235.962 194.495 234.468 193.192 232.552C192.622 231.714 192.007 230.493 191.825 229.837C191.36 228.159 190.512 227.064 190.143 227.662ZM97.381 331.85C97.795 332.519 96.49 333.645 95.939 333.094C95.694 332.848 95.599 332.372 95.728 332.034C95.999 331.328 96.991 331.218 97.381 331.85ZM94.155 333.115C94.112 333.718 93.415 334.825 92.455 335.812C91.56 336.733 90.681 337.862 90.501 338.319C90.291 338.853 89.688 339.242 88.814 339.406C87.485 339.655 84.638 342.468 84.638 343.532C84.638 343.77 84.222 344.123 83.715 344.316C83.207 344.509 82.37 345.214 81.856 345.882C79.884 348.442 79.321 348.963 78.269 349.2C76.549 349.587 76.562 348.586 78.324 345.022C79.877 341.88 80.775 340.799 85.476 336.415C89.435 332.723 94.313 330.868 94.155 333.115ZM76.587 349.772C76.843 350.185 75.721 351.206 75.383 350.867C75.056 350.541 75.528 349.425 75.992 349.425C76.201 349.425 76.469 349.581 76.587 349.772ZM258.415 370.507C258.415 370.751 258.057 370.951 257.62 370.951C255.36 370.951 256.365 373.2 259.023 374.089L260.946 374.733L262.521 378.852C264.317 383.548 264.668 384.08 266.17 384.381C266.916 384.53 267.431 385.002 267.824 385.896C268.354 387.1 268.544 387.202 270.45 387.312L272.505 387.43V386.223C272.505 385.514 272.264 384.924 271.92 384.792C271.598 384.669 271.423 384.426 271.53 384.253C271.753 383.892 270.031 382.41 268.292 381.464C267.547 381.059 266.568 379.831 265.637 378.137C264.025 375.202 263.088 374.018 261.451 372.845C260.503 372.166 260.408 372.155 260.637 372.752C260.813 373.211 260.75 373.337 260.438 373.145C260.186 372.989 259.98 372.68 259.98 372.457C259.98 372.235 259.628 371.605 259.198 371.058C258.767 370.511 258.415 370.263 258.415 370.507ZM145.214 379.133C145.66 379.737 146.083 380.482 146.154 380.789C146.35 381.642 145.58 381.719 145.122 380.891C144.899 380.488 144.408 379.736 144.031 379.22C143.655 378.704 143.346 378.135 143.346 377.956C143.346 377.36 144.389 378.018 145.214 379.133ZM266.298 386.344C265.777 386.972 266.094 387.389 267.091 387.389C267.939 387.389 268.022 386.88 267.273 386.258C266.869 385.923 266.63 385.944 266.298 386.344Z" fill="#D3AE28"/>
<path fill-rule="evenodd" clip-rule="evenodd" d="M131.703 9.18596C132.079 9.28396 132.696 9.28396 133.072 9.18596C133.449 9.08696 133.141 9.00696 132.387 9.00696C131.634 9.00696 131.326 9.08696 131.703 9.18596ZM127.32 10.384C127.472 11.882 127.308 12.14 126.321 11.951C125.665 11.826 125.342 11.94 125.342 12.297C125.342 12.656 125.845 12.83 126.885 12.83C127.733 12.83 128.538 13.009 128.673 13.228C128.808 13.446 129.127 13.49 129.381 13.325C130.338 12.704 135.91 12.848 135.91 13.494C135.91 13.936 136.166 14.025 136.905 13.839C137.888 13.592 137.893 13.601 137.254 14.576C136.898 15.119 136.45 15.466 136.259 15.347C136.067 15.229 135.907 15.45 135.904 15.84C135.901 16.237 135.772 16.376 135.61 16.157C134.865 15.141 133.795 14.559 134.082 15.325C134.338 16.006 134.293 16.017 133.47 15.48C132.907 15.112 132.298 15.013 131.8 15.208C131.121 15.474 131.16 15.518 132.094 15.542C132.767 15.559 133.17 15.785 133.17 16.144C133.17 16.494 133.4 16.631 133.757 16.494C134.132 16.35 134.344 16.501 134.344 16.91C134.344 17.262 134.124 17.607 133.855 17.675C133.586 17.743 132.75 18.026 131.996 18.302C130.816 18.736 129.834 18.921 127.397 19.172C127.128 19.2 126.908 19.364 126.908 19.536C126.908 19.709 126.619 19.739 126.266 19.604C125.74 19.402 125.697 19.487 126.026 20.075C126.416 20.772 124.488 22.614 123.368 22.614C122.974 22.614 122.845 23.901 123.204 24.259C123.319 24.375 124.068 24.236 124.867 23.951C125.667 23.665 127.137 23.424 128.135 23.414C129.133 23.405 130.454 23.134 131.071 22.813C132.461 22.087 133.562 22.056 133.562 22.742C133.562 23.527 131.859 24.963 130.927 24.963C130.474 24.963 129.273 25.319 128.256 25.755C127.24 26.19 125.332 26.701 124.016 26.89C122.701 27.078 120.127 27.897 118.297 28.709C116.468 29.522 114.694 30.169 114.357 30.148C114.019 30.127 112.623 30.978 111.253 32.038C109.807 33.157 108.357 33.965 107.794 33.965C107.261 33.965 106.28 34.379 105.614 34.885C104.948 35.391 103.789 36.122 103.039 36.509C102.288 36.895 98.9031 40.003 95.5161 43.416C92.1281 46.828 89.0991 49.62 88.7851 49.62C88.4711 49.62 87.8141 50.193 87.3261 50.892C86.8371 51.592 85.166 53.544 83.611 55.23C82.057 56.916 79.9671 59.514 78.9681 61.003C77.969 62.492 76.999 63.71 76.812 63.71C76.625 63.71 76.373 64.02 76.253 64.398C76.133 64.776 75.086 66.545 73.926 68.328C72.68 70.245 71.7131 72.221 71.5631 73.161C71.4231 74.036 71.036 75.278 70.704 75.921C70.371 76.564 70.1961 77.187 70.3141 77.305C70.6421 77.633 71.722 76.606 71.722 75.966C71.722 75.655 72.691 74.401 73.875 73.178C75.059 71.956 76.027 70.666 76.027 70.311C76.027 69.465 79.186 65.592 81.888 63.123C83.066 62.047 84.672 60.523 85.457 59.736C86.242 58.949 87.5971 57.855 88.4681 57.305C89.339 56.756 90.165 56.122 90.303 55.898C90.699 55.258 91.683 55.423 91.683 56.129C91.683 56.479 91.111 57.431 90.411 58.242C89.711 59.054 88.2581 60.96 87.1821 62.477C86.1061 63.994 84.942 65.336 84.596 65.46C84.249 65.584 83.653 66.38 83.269 67.23C82.886 68.08 82.224 69.089 81.797 69.472C79.692 71.362 74.382 78.66 74.805 79.082C75.495 79.773 75.375 85.424 74.658 86.02C74.03 86.54 73.841 88.368 74.414 88.368C74.603 88.368 74.969 88.113 75.228 87.801C76.02 86.847 79.1211 85.826 79.6431 86.347C80.3001 87.005 77.9871 95.453 76.1741 99.014C75.8781 99.595 75.636 101.197 75.636 102.574C75.636 105.288 75.895 105.715 78.278 106.922C79.599 107.591 79.7331 107.483 79.5701 105.883C79.5321 105.506 79.6881 105.198 79.9171 105.198C80.1451 105.198 80.333 105.531 80.333 105.937C80.333 106.344 80.961 107.948 81.728 109.502C83.108 112.293 83.229 113.417 82.152 113.417C80.678 113.417 80.7801 117.524 82.2961 119.19C83.7371 120.774 83.619 120.801 84.42 118.705C85.135 116.832 86.6241 115.374 87.8221 115.374C88.8421 115.374 88.724 116.076 87.371 118.075C83.835 123.293 89.5631 139.693 96.1411 143.182C98.4871 144.427 99.1191 143.923 99.1191 140.808C99.1191 138.477 99.5821 137.826 100.884 138.326C101.79 138.673 102.014 140.286 101.486 142.648C100.989 144.866 101.145 145.598 101.944 144.8C103.384 143.36 104.674 144.673 105.141 148.055C105.402 149.941 106.54 150.99 108.325 150.99C109.472 150.99 109.714 151.191 110.483 152.778C113.042 158.064 114.74 157.908 112.911 152.556C112.58 151.587 112.286 149.614 112.257 148.171C112.217 146.084 112.036 145.363 111.374 144.648C110.199 143.379 108.002 139.503 106.76 136.509C106.179 135.11 105.015 133.254 104.173 132.384C102.817 130.985 102.64 130.582 102.629 128.862C102.622 127.794 102.276 125.951 101.859 124.767C100.598 121.183 101.067 119.947 102.989 121.789C104.684 123.413 106.765 122.727 107.816 120.195C109.823 115.363 110.129 114.278 110.469 110.777C110.674 108.677 110.845 106.645 110.851 106.262C110.897 103.052 114.492 106.137 115.99 110.672C117.349 114.784 117.684 115.306 121.624 119.462C126.222 124.312 126.766 125.271 128.506 131.616C129.103 133.792 129.194 134.88 128.945 136.9C128.328 141.925 128.739 145.699 130.09 147.423C130.493 147.936 130.822 148.647 130.822 149.003C130.822 149.359 131.184 150.348 131.627 151.201C132.846 153.547 133.548 155.73 133.573 157.252C133.586 158.006 133.85 159.327 134.16 160.188C134.801 161.966 134.896 163.37 134.396 163.679C134.209 163.794 133.947 164.567 133.815 165.397C133.682 166.226 133.201 167.243 132.745 167.655C132.289 168.068 131.678 168.865 131.388 169.426C130.499 171.146 123.979 171.911 120.212 170.738C118.965 170.35 117.655 173.812 118.026 176.517C118.279 178.362 118.213 178.524 116.635 179.92C115.602 180.833 115.54 180.841 114.79 180.163C113.756 179.226 108.121 177.983 108.121 178.691C108.121 179.228 111.601 181.519 112.418 181.519C112.769 181.519 113.664 181.976 114.405 182.536C115.147 183.095 116.458 183.894 117.319 184.31C118.18 184.727 120.117 185.792 121.624 186.677C124.965 188.639 131.48 192.032 145.898 199.32C157.66 205.264 164.476 208.896 166.047 210.055C167.617 211.213 172.607 214.51 174.299 215.507C176.122 216.581 176.151 218.106 174.4 220.706C173.875 221.486 173.14 222.895 172.766 223.837C172.393 224.779 171.305 227.047 170.348 228.877C169.39 230.706 168.282 232.996 167.884 233.965C167.486 234.933 166.936 235.99 166.661 236.313C166.142 236.923 163.929 240.944 162.245 244.337C160.087 248.684 159.97 248.704 155.789 245.413C152.165 242.56 146.618 238.395 143.93 236.509C142.45 235.47 139.306 233.214 132.636 228.406C131.531 227.609 130.098 226.66 129.452 226.297C128.806 225.934 127.699 225.133 126.992 224.517C125.571 223.279 124.951 223.109 124.951 223.957C124.951 225.008 138.347 237.229 142.228 239.72C150.183 244.825 155.025 249.472 155.437 252.4C155.746 254.596 156.291 255.55 160.619 261.484C163.02 264.775 163.958 267.439 163.567 269.852C163.443 270.614 163.51 272.053 163.714 273.051C163.919 274.049 164.443 277.425 164.877 280.553C165.312 283.682 165.774 286.676 165.904 287.207C166.033 287.738 166.199 291.254 166.272 295.022C166.345 298.789 166.449 302.954 166.503 304.277C166.615 307.054 165.134 310.058 163.191 310.993C162.607 311.275 161.542 312.419 160.826 313.537C160.109 314.655 159.215 315.824 158.838 316.134C158.461 316.445 157.615 317.501 156.957 318.482C152.619 324.954 149.892 325.946 148.013 321.734C145.951 317.109 145.705 316.93 144.74 319.343C144.376 320.252 143.641 321.516 143.106 322.151C142.572 322.786 141.773 324.031 141.33 324.917C138.608 330.365 134.712 331.407 134.169 326.833C133.757 323.363 133.267 321.864 132.225 320.885C130.562 319.322 130.445 319.914 130.664 328.793C130.873 337.297 130.571 342.008 129.799 342.265C129.408 342.395 126.125 337.47 126.125 336.753C126.125 336.59 125.704 335.896 125.19 335.211C124.675 334.525 123.726 332.906 123.079 331.612C121.533 328.519 118.774 327.039 117.432 328.583C115.965 330.271 116.184 331.659 118.679 336.509C121.185 341.378 124.804 355.057 123.893 356.215C121.506 359.249 121.933 363.603 124.639 363.83C126.932 364.023 127.621 367.081 126.115 370.385C125.3 372.175 124.701 374.474 125.05 374.474C126.13 374.474 128.57 372.76 131.299 370.084C135.301 366.16 142.151 359.808 144.396 357.939C145.297 357.189 147.154 355.451 148.524 354.076C149.894 352.702 151.75 351.137 152.648 350.599C154.639 349.407 154.58 349.065 152.254 348.276C149.467 347.331 149.476 347.026 152.396 343.51C154.485 340.996 158.225 335.291 161.038 330.327C162.344 328.023 163.874 325.43 164.437 324.565C165.642 322.714 165.743 322.549 168.666 317.722C169.905 315.677 171.98 312.624 173.277 310.937C174.574 309.25 176.984 305.815 178.631 303.305C184.66 294.116 184.683 294.099 190.117 294.349C198.839 294.751 213.287 305.89 216.626 314.787C219.529 322.521 218.374 327.574 209.436 346.251C208.365 348.489 207.553 351.044 206.885 354.274C206.347 356.881 205.499 360.423 205.002 362.145C202.95 369.25 202.591 374.131 203.995 375.824C205.215 377.294 207.93 384.816 207.694 386.074L207.447 387.389H236.868C253.876 387.389 266.198 387.243 266.074 387.042C265.956 386.852 266.112 386.486 266.421 386.23C266.869 385.858 267.083 385.927 267.489 386.577C268.308 387.889 268.55 387.509 267.862 385.991C267.419 385.015 266.904 384.528 266.157 384.378C264.669 384.081 264.314 383.541 262.521 378.852L260.946 374.733L259.023 374.089C256.955 373.398 256.187 372.612 256.579 371.591C256.833 370.93 258.415 370.68 258.415 371.301C258.415 371.493 258.662 371.745 258.963 371.861C259.319 371.997 259.473 371.84 259.401 371.413C259.339 371.051 259.122 370.79 258.917 370.831C258.713 370.873 258.545 370.355 258.545 369.679C258.545 369.003 258.339 368.382 258.086 368.298C257.834 368.213 257.727 367.983 257.848 367.787C257.97 367.59 257.873 367.429 257.632 367.429C257.391 367.429 257.297 367.263 257.422 367.061C257.546 366.859 257.365 366.535 257.018 366.341C256.671 366.147 256.436 365.916 256.496 365.828C256.556 365.74 256.286 365.182 255.898 364.589C255.368 363.78 255.3 363.38 255.625 362.987C255.864 362.7 255.929 362.32 255.77 362.144C255.61 361.968 255.686 361.942 255.937 362.086C256.197 362.235 256.849 361.797 257.445 361.072C258.022 360.371 258.358 360.061 258.192 360.384C257.993 360.769 258.181 360.714 258.741 360.223C259.21 359.812 259.481 359.371 259.342 359.244C259.204 359.118 259.011 359.235 258.915 359.505C258.632 360.298 258.077 359.676 258.302 358.818C258.523 357.972 259.198 357.736 259.198 358.505C259.198 358.85 259.313 358.859 259.633 358.539C260.127 358.045 259.729 357.12 259.171 357.465C258.574 357.834 258.743 357.353 259.98 355.16C262.794 350.174 258.704 343.592 252.081 342.447C250.448 342.165 250.391 342.107 250.391 340.715C250.391 339.717 250.074 338.913 249.36 338.099C248.793 337.452 248.219 336.484 248.084 335.947C247.336 332.966 245.96 336.359 245.476 342.38C245.276 344.855 244.925 348.29 244.695 350.012C244.464 351.734 244.204 353.847 244.117 354.708C243.87 357.132 242.953 359.716 242.178 360.169C240.416 361.2 239.613 362.312 239.251 364.223C238.474 368.322 236.497 370.517 236.497 367.281C236.497 367.067 236.124 366.495 235.669 366.01C235.18 365.49 234.759 364.401 234.64 363.35C234.53 362.371 234.198 361.37 233.903 361.125C233.608 360.88 233.366 360.249 233.366 359.723C233.366 358.531 232.738 357.313 231.545 356.195C231.04 355.721 230.626 355.081 230.626 354.772C230.626 354.464 229.852 351.857 228.905 348.98C225.031 337.207 223.187 328.917 223.189 323.282C223.19 322.313 223.034 322.022 222.564 322.108C221.247 322.35 220.251 317.578 221.061 314.904C221.805 312.447 222.407 311.947 222.407 313.785C222.407 314.418 222.583 315.045 222.798 315.178C223.031 315.322 223.19 314.865 223.19 314.053C223.19 313.301 223.454 311.431 223.776 309.897C224.099 308.364 224.478 305.843 224.619 304.294C224.76 302.746 225.391 299.982 226.021 298.153C226.651 296.323 227.399 293.505 227.684 291.89C227.968 290.276 228.57 287.131 229.022 284.901C230.003 280.06 230.049 278.082 229.232 275.795C228.738 274.409 228.673 273.134 228.89 269.111C229.189 263.577 228.957 262.736 226.161 259.24C225.458 258.362 224.223 256.323 223.416 254.708C221.003 249.883 217.907 246.149 215.328 244.957C213.677 244.193 212.449 243.157 210.31 240.724C207.09 237.063 203.746 235.53 198.977 235.53C196.351 235.53 195.211 234.648 193.914 231.611C193.499 230.639 192.872 229.605 192.519 229.312C192.167 229.02 191.879 228.476 191.879 228.102C191.879 227.729 191.301 226.65 190.594 225.704C189.888 224.758 189.106 223.515 188.857 222.942C188.316 221.698 184.322 218.287 182.544 217.551C181.85 217.263 181.332 216.918 181.394 216.783C181.456 216.648 182.034 215.484 182.677 214.195C184.869 209.807 185.23 199.285 183.315 195.61C182.407 193.869 182.958 191.733 184.192 192.207C184.456 192.308 184.666 192.074 184.666 191.678C184.666 191.288 184.572 190.976 184.456 190.986C183.145 191.101 182.642 189.676 183.521 188.335C183.85 187.834 184.007 187.244 183.871 187.023C183.735 186.803 183.832 186.233 184.086 185.758L184.549 184.892L185.279 185.793C185.979 186.658 186.008 186.662 186.008 185.895C186.008 185.456 185.744 184.833 185.421 184.51C184.423 183.512 185.894 179.562 187.263 179.562C187.78 179.562 188.748 178.532 188.748 177.982C188.748 177.728 189.01 177.622 189.33 177.744C189.667 177.874 189.873 177.767 189.819 177.493C189.764 177.21 190.091 177.057 190.629 177.115C191.151 177.171 191.431 177.047 191.291 176.821C191.081 176.481 191.875 176.245 192.759 176.384C192.921 176.41 193.009 176.295 192.955 176.129C192.808 175.678 194.591 173.533 194.875 173.817C195.011 173.953 194.923 174.302 194.68 174.595C194.344 175 194.373 175.126 194.803 175.126C195.113 175.126 195.275 174.978 195.163 174.797C195.052 174.616 195.236 174.362 195.572 174.233C195.909 174.104 196.184 173.655 196.184 173.234C196.184 172.814 196.008 172.579 195.793 172.712C195.577 172.845 195.401 172.77 195.401 172.544C195.401 172.319 195.797 172.176 196.282 172.228C196.814 172.284 197.124 172.127 197.065 171.832C197.011 171.563 197.147 171.342 197.367 171.342C197.587 171.342 197.5 170.935 197.174 170.437C196.498 169.404 197.096 167.437 198.089 167.432C198.426 167.43 198.55 167.146 198.424 166.664C198.187 165.76 199.019 164.46 199.603 164.82C199.826 164.959 200.21 164.83 200.455 164.535C200.797 164.123 200.762 163.944 200.304 163.768C199.975 163.642 199.71 163.225 199.715 162.842C199.725 162.016 201.25 159.93 201.263 160.725C201.27 161.162 201.383 161.17 201.869 160.767C202.402 160.324 202.396 160.194 201.815 159.552C201.349 159.037 201.28 158.692 201.572 158.336C201.796 158.063 202.041 157.399 202.116 156.861C202.222 156.104 202.457 155.905 203.155 155.98C203.675 156.036 203.955 155.912 203.816 155.686C203.683 155.471 203.805 155.284 204.086 155.271C204.368 155.257 204.203 155.087 203.718 154.892C202.849 154.543 202.505 153.199 203.178 152.783C203.366 152.667 203.631 152.014 203.767 151.331C204.015 150.093 204.018 150.092 204.864 150.834C205.33 151.243 205.583 151.357 205.426 151.088C205.262 150.807 205.344 150.599 205.619 150.599C205.883 150.599 205.983 150.483 205.842 150.341C205.7 150.2 205.78 149.847 206.02 149.559C206.294 149.228 206.308 149.033 206.058 149.033C205.84 149.033 205.555 149.309 205.426 149.645C205.297 149.982 205.014 150.147 204.797 150.013C204.286 149.698 204.284 146.805 204.795 146.489C205.01 146.356 205.186 145.031 205.186 143.544C205.186 140.827 205.971 139.503 207.151 140.232C207.383 140.376 207.534 139.618 207.534 138.307C207.534 136.546 207.389 136.067 206.751 135.726C205.76 135.195 205.585 131.152 206.538 130.786C206.993 130.612 207.052 130.088 206.831 128.157C206.68 126.831 206.556 123.016 206.556 119.679C206.556 115.632 206.407 113.482 206.11 113.221C205.865 113.006 205.547 112.125 205.404 111.264C205.261 110.403 204.861 108.94 204.516 108.013C203.755 105.97 204.518 104.592 205.924 105.47C206.536 105.853 206.73 105.773 207.165 104.96C207.449 104.43 207.895 104.078 208.157 104.179C208.866 104.451 209.155 103.974 208.65 103.366C208.294 102.937 208.352 102.886 208.947 103.109C209.561 103.34 209.608 103.29 209.22 102.812C208.746 102.227 209.086 101.188 209.731 101.25C209.922 101.269 210.093 101.152 210.112 100.99C210.131 100.829 210.259 100.432 210.397 100.11C210.856 99.036 210.952 96.617 210.541 96.48C210.313 96.404 210.273 96.122 210.449 95.837C210.705 95.424 210.833 95.429 211.137 95.86C211.389 96.218 211.449 95.849 211.321 94.728C211.217 93.813 211.291 92.966 211.485 92.846C211.68 92.725 211.84 92.451 211.84 92.236C211.84 92.02 211.619 91.98 211.35 92.146C211.081 92.312 211.177 91.965 211.562 91.375C211.948 90.785 212.167 90.147 212.049 89.956C211.931 89.765 212.013 89.55 212.23 89.477C212.492 89.39 212.504 88.379 212.265 86.477C211.895 83.529 211.056 81.98 210.042 82.37C209.739 82.486 209.491 82.382 209.491 82.138C209.491 81.844 208.408 81.697 206.262 81.702C204.486 81.705 202.764 81.696 202.435 81.681C201.92 81.656 201.88 81.13 202.144 77.867C202.313 75.786 202.364 73.853 202.257 73.573C202.151 73.292 202.219 73.159 202.41 73.277C202.6 73.394 202.854 73.233 202.975 72.918C203.096 72.604 202.999 72.225 202.76 72.077C202.475 71.901 202.433 71.998 202.639 72.358C202.885 72.789 202.844 72.808 202.452 72.445C202.176 72.19 202.068 71.677 202.211 71.303C202.403 70.804 202.587 70.74 202.908 71.061C203.229 71.382 203.64 71.181 204.461 70.302C205.746 68.927 206.077 65.943 204.99 65.526C204.341 65.277 204.26 63.942 204.821 62.732C205.098 62.135 205.158 62.344 205.077 63.613C205.018 64.527 205.106 65.276 205.273 65.276C205.655 65.276 205.678 58.853 205.298 58.473C204.925 58.101 204.837 56.254 205.203 56.48C205.36 56.577 205.574 56.329 205.679 55.928C205.822 55.382 205.697 55.244 205.18 55.379C204.802 55.478 204.373 55.368 204.229 55.134C204.081 54.894 204.242 54.708 204.599 54.708C204.947 54.708 205.123 54.532 204.99 54.317C204.857 54.102 205.023 53.926 205.359 53.926C206.307 53.926 206.088 53.211 204.611 51.485C203.314 49.971 203.263 49.797 203.487 47.661C203.641 46.186 203.57 45.33 203.279 45.15C203.036 45 202.838 45.093 202.838 45.357C202.838 45.621 202.724 45.724 202.586 45.585C202.448 45.447 202.553 45.071 202.819 44.75C203.499 43.931 202.213 40.474 201.352 40.804C200.86 40.993 200.851 40.93 201.289 40.402C201.723 39.879 201.716 39.717 201.247 39.42C200.938 39.225 200.827 39.062 201.001 39.059C201.174 39.056 201.042 38.661 200.707 38.183C200.372 37.705 200.098 37 200.098 36.617C200.098 36.235 199.938 35.922 199.743 35.922C199.548 35.922 199.48 36.274 199.593 36.705C199.847 37.677 199.663 37.685 198.586 36.751C197.571 35.871 197.806 34.374 198.827 35.221C199.153 35.492 198.865 34.81 198.185 33.706C197.506 32.602 196.692 31.484 196.376 31.222C196.06 30.959 195.899 30.587 196.018 30.394C196.391 29.79 195.812 28.617 194.903 28.138C194.193 27.764 194.177 27.721 194.814 27.905C195.501 28.105 195.477 28.014 194.618 27.159C194.08 26.623 193.376 26.13 193.053 26.063C192.73 25.996 192.362 25.8 192.235 25.628C192.108 25.456 191.623 25.286 191.159 25.251C190.694 25.216 190.31 25.005 190.307 24.782C190.304 24.558 190.13 24.64 189.922 24.963C189.601 25.459 189.541 25.439 189.536 24.832C189.533 24.433 189.313 24.188 189.041 24.28C188.772 24.37 188.319 24.165 188.034 23.823C187.749 23.481 187.614 23.402 187.736 23.646C187.857 23.891 187.606 24.183 187.178 24.295C186.32 24.519 186.054 23.589 186.888 23.282C187.158 23.183 186.891 22.973 186.296 22.815C185.586 22.626 184.99 22.71 184.56 23.06C183.991 23.523 183.937 23.507 184.149 22.94C184.442 22.158 183.784 21.842 182.409 22.105C181.267 22.323 180.538 21.545 181.359 20.984C181.767 20.705 181.708 20.648 181.115 20.749C180.685 20.822 180.157 20.665 179.941 20.4C179.726 20.135 179.292 19.864 178.977 19.798C178.662 19.733 177.97 19.292 177.438 18.819C176.907 18.347 176.324 18.051 176.142 18.164C175.961 18.276 175.861 18.145 175.92 17.872C175.979 17.6 175.675 17.313 175.245 17.235C174.663 17.129 174.598 17.186 174.993 17.456C175.366 17.712 175.395 17.9 175.088 18.089C174.848 18.238 174.534 18.05 174.389 17.673C174.244 17.295 174.297 16.929 174.508 16.859C174.718 16.789 174.819 16.118 174.731 15.368C174.549 13.808 173.873 13.614 172.701 14.787C171.838 15.649 170.918 15.854 171.383 15.08C171.585 14.744 171.471 14.758 171.019 15.125C170.657 15.418 170.448 15.799 170.554 15.971C170.761 16.306 169.729 16.251 169.387 15.909C169.07 15.592 166.83 16.008 166.83 16.384C166.83 16.568 166.537 16.607 166.178 16.469C165.706 16.288 165.615 16.361 165.848 16.738C166.082 17.116 166.02 17.163 165.618 16.912C165.316 16.723 164.41 16.601 163.606 16.64C162.507 16.695 162.042 16.522 161.733 15.945C161.349 15.227 161.492 15.008 162.26 15.141C162.437 15.172 162.466 15.008 162.323 14.777C162.155 14.505 161.903 14.49 161.609 14.733C160.539 15.618 158.549 14.617 159.491 13.668C159.884 13.272 159.832 13.231 159.231 13.46C158.668 13.675 158.562 13.617 158.803 13.227C159.022 12.872 158.972 12.802 158.644 13.005C158.381 13.167 158.249 13.516 158.35 13.78C158.619 14.48 157.259 14.274 156.481 13.496C156.118 13.133 155.948 12.631 156.103 12.38C156.294 12.07 156.13 11.99 155.59 12.131C154.938 12.302 154.834 12.192 155.011 11.518C155.129 11.067 155.297 10.913 155.385 11.176C155.473 11.44 155.728 11.656 155.951 11.656C156.192 11.656 156.153 11.409 155.857 11.052C155.509 10.633 155.231 10.573 154.948 10.856C154.275 11.53 153.776 11.316 154.355 10.602C154.72 10.152 154.736 10.034 154.403 10.234C154.134 10.395 153.914 10.385 153.914 10.211C153.913 10.037 152.588 9.85896 150.967 9.81596C149.19 9.76896 148.112 9.88496 148.251 10.109C148.377 10.313 148.073 10.436 147.577 10.383C146.924 10.313 146.688 10.476 146.728 10.971C146.782 11.657 146.296 11.914 145.987 11.362C145.897 11.201 145.879 11.295 145.948 11.573C146.017 11.85 145.768 12.171 145.395 12.286C145.021 12.401 144.41 12.659 144.037 12.858C143.037 13.392 142.351 13.308 140.856 12.468C140.119 12.054 139.012 11.658 138.398 11.588C137.691 11.507 137.138 11.136 136.893 10.579C136.469 9.61196 135.519 9.37896 135.519 10.241C135.519 10.933 133.973 11.157 130.657 10.946C128.633 10.817 128.082 10.655 128.242 10.239C128.362 9.92396 128.198 9.69896 127.85 9.69896C127.513 9.69896 127.281 9.99896 127.32 10.384ZM137.697 10.441C137.213 10.631 137.098 10.835 137.377 11.007C137.617 11.156 137.925 11.095 138.063 10.873C138.2 10.651 138.476 10.57 138.677 10.694C138.877 10.818 139.041 10.732 139.041 10.505C139.041 10.033 138.773 10.02 137.697 10.441ZM147.97 11.24C148.068 11.533 147.921 11.68 147.627 11.582C147.345 11.488 147.036 11.18 146.942 10.897C146.844 10.604 146.991 10.457 147.285 10.555C147.567 10.649 147.875 10.957 147.97 11.24ZM141.781 11.962C141.781 12.13 142.221 12.304 142.759 12.349C143.297 12.393 143.738 12.255 143.738 12.043C143.738 11.83 143.297 11.656 142.759 11.656C142.221 11.656 141.781 11.793 141.781 11.962ZM169.051 12.987C168.935 13.289 169.087 13.862 169.388 14.259C169.911 14.95 169.937 14.951 169.948 14.274C169.956 13.818 170.135 13.668 170.45 13.852C170.719 14.01 170.604 13.756 170.194 13.288C169.312 12.283 169.321 12.285 169.051 12.987ZM121.175 13.61C120.118 14.036 119.625 14.787 120.402 14.787C121.464 14.787 123.046 14.012 122.799 13.613C122.515 13.154 122.306 13.154 121.175 13.61ZM167.062 13.554C166.944 13.744 167.179 14.198 167.583 14.564C168.065 15 168.406 15.086 168.575 14.812C168.717 14.583 168.548 14.395 168.2 14.395C167.851 14.395 167.668 14.231 167.792 14.031C167.915 13.831 167.85 13.564 167.646 13.437C167.442 13.311 167.179 13.364 167.062 13.554ZM174.266 15.788C174.266 16.865 174.147 16.917 173.034 16.321C172.285 15.92 172.279 15.86 172.916 15.156C173.733 14.254 174.266 14.504 174.266 15.788ZM128.848 15.58C128.555 15.761 128.157 15.812 127.964 15.692C127.771 15.573 127.813 15.849 128.057 16.305C128.552 17.23 128.793 17.296 129.648 16.744C130.17 16.406 130.17 16.361 129.648 16.331C129.247 16.308 129.3 16.203 129.815 16.002C130.433 15.76 130.462 15.665 129.975 15.478C129.648 15.353 129.141 15.399 128.848 15.58ZM165.097 15.529C164.422 15.793 164.412 15.85 164.999 16.076C165.36 16.214 165.656 16.147 165.656 15.925C165.656 15.704 165.859 15.649 166.107 15.803C166.387 15.976 166.453 15.91 166.28 15.63C166.126 15.381 165.967 15.19 165.926 15.206C165.885 15.221 165.512 15.366 165.097 15.529ZM121.918 15.87C121.433 15.95 121.037 16.271 121.037 16.583C121.037 17.094 122.741 17.023 123.359 16.486C123.736 16.16 122.742 15.735 121.918 15.87ZM109.884 26.134C109.753 26.347 109.843 26.832 110.087 27.21C110.493 27.842 110.509 27.837 110.29 27.147C110.155 26.721 110.27 26.257 110.554 26.076C110.912 25.849 110.922 25.756 110.591 25.752C110.334 25.748 110.016 25.92 109.884 26.134ZM107.73 43.034C107.73 43.598 100.879 50.403 100.311 50.403C99.5761 50.403 99.8791 49.648 101.216 48.154C101.938 47.346 102.726 46.308 102.968 45.847C103.749 44.355 107.73 42.003 107.73 43.034ZM202.935 49.024C202.678 50.367 202.446 50.267 202.446 48.814C202.446 48.156 202.599 47.711 202.785 47.827C202.971 47.942 203.039 48.481 202.935 49.024ZM205.124 53.413C204.524 54.136 204.104 54.05 203.817 53.146C203.442 51.965 203.933 51.517 204.794 52.255C205.357 52.737 205.441 53.031 205.124 53.413ZM78.2441 70.396C77.4181 71.274 76.834 72.084 76.946 72.196C77.263 72.513 77.825 72.048 79.163 70.359C80.773 68.325 80.1691 68.349 78.2441 70.396ZM201.943 86.55C201.73 87.189 200.881 87.313 200.881 86.705C200.881 86.4 201.15 86.15 201.479 86.15C201.807 86.15 202.017 86.33 201.943 86.55ZM205.969 94.826C205.969 95.579 206.145 96.196 206.36 96.196C206.575 96.196 206.751 96.9 206.751 97.761C206.751 99.304 205.912 99.995 205.445 98.838C205.337 98.568 205.231 99.053 205.211 99.914C205.191 100.775 205.045 101.303 204.886 101.088C204.728 100.873 204.335 100.638 204.012 100.566C203.689 100.494 203.551 100.562 203.704 100.716C204.101 101.112 203.306 102.458 202.676 102.458C201.848 102.458 200.574 98.78 201.256 98.358C201.861 97.984 201.749 97.37 201.076 97.37C200.753 97.37 200.489 97.032 200.489 96.62C200.489 96.207 200.269 95.791 200 95.695C199.013 95.342 199.99 95.045 201.102 95.359C202.262 95.687 205.859 94.259 205.295 93.696C205.163 93.564 205.261 93.456 205.512 93.456C205.773 93.456 205.969 94.043 205.969 94.826ZM206.63 95.315C206.531 95.692 206.451 95.384 206.451 94.63C206.451 93.877 206.531 93.568 206.63 93.945C206.728 94.322 206.728 94.938 206.63 95.315ZM122.991 100.099C123.854 100.645 122.996 101.325 121.238 101.489C120.439 101.563 119.48 101.9 119.107 102.238C117.819 103.404 114.376 104.184 113.663 103.471C112.879 102.687 114.068 101.585 115.453 101.812C116.594 101.999 120.016 101.103 121.124 100.327C122.136 99.619 122.216 99.609 122.991 100.099ZM207.709 130.672C207.564 130.906 207.642 131.294 207.881 131.533C208.201 131.853 208.317 131.74 208.317 131.108C208.317 130.163 208.114 130.017 207.709 130.672ZM105.479 177.703C105.569 177.972 105.974 178.256 106.38 178.335C107.018 178.458 107.047 178.393 106.593 177.846C105.972 177.097 105.247 177.004 105.479 177.703ZM187.965 179.953C187.695 180.457 187.685 180.736 187.937 180.736C188.152 180.736 188.517 180.384 188.748 179.953C189.017 179.45 189.027 179.17 188.775 179.17C188.56 179.17 188.195 179.523 187.965 179.953ZM191.825 229.837C192.007 230.493 192.622 231.714 193.192 232.552C194.433 234.377 194.459 234.621 193.448 234.942C192.057 235.384 191.317 234.247 190.34 230.167C189.539 226.82 190.904 226.517 191.825 229.837ZM249.649 298.597C249.76 300.198 250.196 300.538 250.196 299.024C250.196 298.355 250.054 297.72 249.881 297.613C249.709 297.506 249.604 297.949 249.649 298.597ZM250.678 306.763C250.678 307.517 250.758 307.825 250.857 307.448C250.955 307.071 250.955 306.455 250.857 306.078C250.758 305.702 250.678 306.01 250.678 306.763ZM251.967 316.563C251.973 317.391 252.105 318.196 252.261 318.352C252.416 318.508 252.544 317.912 252.544 317.028C252.544 316.143 252.412 315.338 252.25 315.239C252.089 315.139 251.961 315.735 251.967 316.563ZM252.74 322.848C252.74 323.473 252.872 323.984 253.033 323.984C253.195 323.984 253.327 323.554 253.327 323.029C253.327 322.504 253.195 321.992 253.033 321.892C252.872 321.792 252.74 322.222 252.74 322.848ZM95.728 332.034C95.599 332.372 95.694 332.848 95.939 333.094C96.49 333.645 97.795 332.519 97.381 331.85C96.991 331.218 95.999 331.328 95.728 332.034ZM92.2701 332.29C88.8441 333.426 86.977 334.798 81.594 340.133C79.751 341.961 76.591 347.897 76.956 348.848C77.119 349.274 77.494 349.374 78.269 349.2C79.321 348.963 79.8841 348.442 81.8561 345.882C82.3701 345.214 83.207 344.509 83.715 344.316C84.222 344.123 84.638 343.77 84.638 343.532C84.638 342.468 87.485 339.655 88.814 339.406C89.688 339.242 90.2911 338.853 90.5011 338.319C90.6811 337.862 91.56 336.733 92.455 335.812C94.914 333.282 94.8171 331.445 92.2701 332.29ZM75.38 350.029C75.252 350.361 75.2531 350.738 75.3831 350.867C75.7211 351.206 76.843 350.185 76.587 349.772C76.253 349.231 75.635 349.363 75.38 350.029ZM166.799 357.937C167.226 358.745 168.133 361.254 168.816 363.515C169.498 365.775 170.577 369.249 171.212 371.235C171.847 373.221 172.29 374.982 172.197 375.149C172.103 375.316 172.259 377.301 172.544 379.562C172.829 381.822 172.958 384.515 172.829 385.546L172.596 387.42L176.268 387.307L179.941 387.194L180.066 383.671C180.454 372.759 175.829 362.555 168.207 357.503C166.124 356.122 165.88 356.198 166.799 357.937ZM260.831 357.767C260.363 358.265 259.986 358.838 259.993 359.039C260 359.24 260.22 359.123 260.482 358.779C260.744 358.435 261.131 358.083 261.342 357.996C261.666 357.863 262.049 356.861 261.775 356.861C261.724 356.861 261.299 357.269 260.831 357.767ZM198.424 367.545C197.625 368.765 190.705 386.252 190.705 387.051C190.705 387.237 192.642 387.389 195.01 387.389H199.315L199.317 386.117C199.317 385.418 199.678 384.255 200.118 383.533C201.033 382.033 201.057 381.703 200.689 375.843C200.125 366.882 199.753 365.518 198.424 367.545ZM143.346 377.956C143.346 378.135 143.655 378.704 144.031 379.22C144.408 379.736 144.899 380.488 145.122 380.891C145.58 381.719 146.35 381.642 146.154 380.789C145.848 379.458 143.346 376.933 143.346 377.956ZM115.536 384.16C113.958 384.968 112.415 386.024 112.108 386.509L111.548 387.389L115.021 387.385L118.493 387.38L119.374 386.02C121.601 382.582 120.07 381.84 115.536 384.16Z" fill="#FFD230"/>
<path fill-rule="evenodd" clip-rule="evenodd" d="M130.719 9.179C131.095 9.277 131.712 9.277 132.088 9.179C132.465 9.08 132.157 9 131.403 9C130.65 9 130.342 9.08 130.719 9.179ZM147.749 9.968C148.235 10.062 148.94 10.059 149.314 9.961C149.688 9.863 149.29 9.786 148.429 9.79C147.568 9.795 147.262 9.875 147.749 9.968ZM173.282 15.148C173.282 15.781 173.421 16.385 173.592 16.49C173.762 16.596 173.831 16.078 173.745 15.339C173.553 13.694 173.282 13.583 173.282 15.148ZM171.28 15.102C170.137 16.437 170.057 16.921 171.154 15.868C171.763 15.282 172.174 14.715 172.066 14.608C171.959 14.5 171.605 14.722 171.28 15.102ZM131.012 15.46C131.55 15.56 132.113 15.839 132.263 16.08C132.413 16.321 132.672 16.382 132.839 16.215C133.276 15.777 132.158 15.175 131.012 15.23L130.034 15.278L131.012 15.46ZM127.587 15.822C126.71 16.176 127.072 16.737 128.175 16.731C128.95 16.726 129.098 16.628 128.705 16.379C128.266 16.101 128.305 15.996 128.9 15.843C129.591 15.666 129.589 15.652 128.859 15.639C128.429 15.631 127.857 15.713 127.587 15.822ZM175.716 18.511C176.302 19.127 176.851 19.552 176.937 19.456C177.023 19.359 176.544 18.856 175.872 18.336L174.652 17.391L175.716 18.511ZM160.887 21.749C159.989 22.114 158.844 22.79 158.343 23.252C157.487 24.039 157.017 24.092 150.66 24.119C143.3 24.149 143.615 24.079 136.883 27.191C135.699 27.738 133.816 28.503 132.7 28.89C129.369 30.044 124.025 33.448 120.461 36.685C118.622 38.355 116.906 39.789 116.648 39.873C115.103 40.37 102.565 52.62 102.013 54.171C101.695 55.064 93.825 62.921 93.248 62.921C92.877 62.921 92.656 62.555 92.656 61.942C92.656 60.311 91.875 60.805 86.907 65.578C78.597 73.562 77 75.999 77 80.693C77 83.972 77.179 84.256 78.737 83.449C80.111 82.735 81.867 82.68 81.445 83.364C81.281 83.629 81.04 85.434 80.908 87.376C80.71 90.313 80.424 91.448 79.2 94.144C77.38 98.154 77.353 98.969 78.953 101.668C79.655 102.852 80.465 104.613 80.754 105.582C81.042 106.551 81.841 108.224 82.529 109.3C83.217 110.377 83.988 111.953 84.243 112.803C84.796 114.645 85.198 114.848 86.383 113.889C87.214 113.215 87.236 113.091 86.707 112.017C85.833 110.242 86.509 108.322 88.007 108.322C88.411 108.322 88.742 108.069 88.742 107.761C88.742 106.45 92.022 106.549 92.442 107.873C92.728 108.774 92.864 113.011 92.632 113.792C92.28 114.977 94.185 114.733 94.637 113.535C95.085 112.35 96.737 110.439 97.824 109.849C98.486 109.49 100.937 111.443 101.339 112.65C101.589 113.398 103.223 112.688 103.223 111.831C103.223 111.423 103.858 109.935 104.633 108.525C106.023 105.996 106.147 104.799 105.02 104.799C103.795 104.799 104.046 104.001 105.576 103.035C107.833 101.61 107.893 101.102 106.011 99.364C104.487 97.957 103.946 96.514 104.755 96.014C104.951 95.893 105.23 95.046 105.373 94.132C105.516 93.218 106.324 91.035 107.168 89.28C108.012 87.525 108.703 85.799 108.703 85.444C108.703 85.09 108.977 84.269 109.313 83.62C109.648 82.971 110.162 80.999 110.454 79.236C110.952 76.225 113.965 68.981 115.448 67.226C116.81 65.614 122.335 61.302 124.358 60.272C125.112 59.888 126.473 59.094 127.384 58.508C128.295 57.921 129.266 57.441 129.544 57.441C129.821 57.441 130.701 56.997 131.499 56.455C133.177 55.314 138.685 53.293 141.645 52.732C142.763 52.52 143.968 52.084 144.323 51.763C144.678 51.442 145.513 51.179 146.179 51.179C146.907 51.179 147.865 50.78 148.58 50.178C149.234 49.628 150.436 49.086 151.251 48.973C156.271 48.281 159.186 47.463 161.863 45.995C165.919 43.77 170.322 44.342 179.153 48.239C180.767 48.951 182.561 49.64 183.138 49.77C185.705 50.347 190.772 56.431 193.684 62.431C195.173 65.499 196.534 68.009 196.71 68.009C197.401 68.009 199.158 63.821 198.899 62.79C198.702 62.005 198.915 61.444 199.829 60.335C201.004 58.909 201.008 58.89 200.298 57.876C199.905 57.314 199.275 55.533 198.899 53.919C198.523 52.304 197.977 50.636 197.686 50.211C197.008 49.222 197.013 48.248 197.698 47.562C198.281 46.98 198.241 45.175 197.629 44.409C196.714 43.264 196.646 42.086 197.51 42.36C198.569 42.697 198.551 42.171 197.458 40.781C196.977 40.17 196.781 39.792 197.022 39.941C197.263 40.09 197.664 39.965 197.914 39.663C198.412 39.064 197.844 38.425 197.18 38.836C196.664 39.155 195.451 36.454 195.754 35.663C195.907 35.266 195.696 34.727 195.21 34.275C194.774 33.868 194.39 33.235 194.358 32.866C194.325 32.498 194.257 32.02 194.207 31.805C194.157 31.59 194.096 30.743 194.071 29.923C194.042 28.979 193.873 28.526 193.61 28.689C193.381 28.831 192.897 28.709 192.533 28.419C190.845 27.07 190.129 26.876 188.562 27.346C186.656 27.917 185.661 27.597 186.002 26.523C186.193 25.922 186.073 25.739 185.49 25.739C184.277 25.739 183.695 24.775 184.451 24.019C184.797 23.673 185.375 23.388 185.737 23.384C186.304 23.379 186.313 23.326 185.807 22.999C185.152 22.576 183.572 22.46 183.977 22.865C184.379 23.267 183.444 24.173 182.628 24.173C182.223 24.173 181.893 24.357 181.893 24.582C181.893 25.09 179.389 24.678 177.9 23.925C177.319 23.631 176.438 23.389 175.943 23.388C175.448 23.387 174.568 23.137 173.987 22.834C170.51 21.02 164.005 20.482 160.887 21.749ZM108.9 26.127C108.769 26.34 108.859 26.825 109.103 27.203C109.509 27.835 109.525 27.83 109.306 27.14C109.171 26.714 109.286 26.25 109.57 26.069C109.928 25.842 109.938 25.749 109.607 25.745C109.35 25.741 109.032 25.913 108.9 26.127ZM191.873 25.99C193.866 27.758 194.6 28.274 193.832 27.366C193.405 26.861 192.702 26.268 192.269 26.046C191.836 25.824 191.658 25.799 191.873 25.99ZM195.54 31.743C195.78 32.032 195.897 32.347 195.801 32.443C195.705 32.539 195.995 32.847 196.444 33.128C197.245 33.628 197.244 33.614 196.4 32.428C195.926 31.763 195.44 31.218 195.321 31.218C195.202 31.218 195.3 31.454 195.54 31.743ZM198.756 36.556C198.738 37.017 199.031 37.73 199.407 38.14C199.784 38.551 199.948 38.67 199.772 38.404C199.595 38.139 199.302 37.426 199.12 36.82C198.852 35.927 198.783 35.877 198.756 36.556ZM200.805 41.399C200.871 41.833 201.139 42.401 201.4 42.663C201.772 43.035 201.78 42.865 201.435 41.874C200.938 40.451 200.624 40.214 200.805 41.399ZM202.352 46.874C202.352 47.842 202.428 48.239 202.521 47.754C202.614 47.27 202.614 46.477 202.521 45.993C202.428 45.509 202.352 45.905 202.352 46.874ZM91.608 48.928C91.172 49.413 90.675 50.055 90.504 50.355C90.021 51.198 92.429 49.675 92.985 48.785C93.664 47.697 92.618 47.806 91.608 48.928ZM202.636 50.706C202.636 50.891 203.077 51.456 203.615 51.962C204.153 52.467 204.607 53.158 204.624 53.498C204.645 53.911 204.721 53.951 204.855 53.619C204.964 53.346 204.51 52.503 203.845 51.746C203.18 50.989 202.636 50.52 202.636 50.706ZM204.127 58.909C204.061 59.07 204.106 60.611 204.228 62.334L204.45 65.465L204.522 62.04C204.586 58.949 204.475 58.065 204.127 58.909ZM204.319 67.617C204.319 68.801 204.393 69.286 204.482 68.694C204.572 68.102 204.572 67.133 204.482 66.541C204.393 65.949 204.319 66.433 204.319 67.617ZM201.451 72.999C201.12 73.393 200.929 74.242 201.001 74.996C201.07 75.718 200.982 76.218 200.805 76.108C200.628 75.999 200.56 77.169 200.653 78.71L200.823 81.512L201.13 77.793C201.299 75.748 201.615 73.679 201.833 73.195C202.308 72.135 202.217 72.089 201.451 72.999ZM184.828 78.444C183.537 78.746 181.379 79.146 180.034 79.334C176.487 79.828 173.713 81.495 172.601 83.802C172.119 84.803 171.526 85.621 171.283 85.621C171.023 85.621 170.92 86.026 171.032 86.614C171.293 87.975 170.078 88.752 167.69 88.752C165.317 88.752 164.28 88.218 164.28 86.997C164.28 81.107 146.395 79.348 136.891 84.302C133.833 85.896 128.505 90.534 128.037 92.009C127.891 92.47 127.418 93.324 126.987 93.908C125.5 95.918 126.567 100.621 128.611 101.07C130.178 101.414 131.201 102.641 132.21 105.386C134.906 112.723 135.761 113.218 145.689 113.201C153.486 113.188 153.319 113.213 162.792 110.651C165.504 109.918 166.881 107.39 168.211 100.703C169.083 96.322 172.141 94.588 175.064 96.818C176.757 98.109 180.017 102.556 180.76 104.588C182.244 108.648 189.463 108.701 202.566 104.75C203.926 104.34 205.203 104.105 205.403 104.229C205.604 104.353 205.767 104.179 205.767 103.844C205.767 103.508 205.944 103.234 206.159 103.234C206.374 103.234 206.55 102.881 206.55 102.451C206.55 102.02 206.726 101.668 206.942 101.668C207.157 101.668 207.333 101.468 207.333 101.224C207.333 100.979 207.798 100.349 208.365 99.823C208.999 99.235 209.306 99.104 209.16 99.484C209.03 99.824 209.106 100.103 209.329 100.103C209.553 100.103 209.675 99.706 209.601 99.222C209.528 98.738 209.264 98.381 209.016 98.43C208.768 98.478 208.451 97.998 208.311 97.362C208.031 96.084 208.358 94.623 208.925 94.623C209.126 94.623 209.29 93.831 209.29 92.862C209.29 91.557 209.442 91.101 209.877 91.101C210.2 91.101 210.464 90.914 210.464 90.686C210.464 90.458 210.64 90.381 210.856 90.514C211.071 90.647 211.247 90.569 211.247 90.341C211.247 90.113 210.985 89.926 210.665 89.926C209.99 89.926 209.909 85.582 210.561 84.301C210.849 83.736 210.727 83.378 210.029 82.736C209.221 81.993 209.194 81.989 209.774 82.695C210.173 83.18 210.3 83.688 210.102 84.008C209.876 84.374 209.699 84.4 209.511 84.097C209.364 83.859 208.921 83.664 208.526 83.664C208.131 83.664 207.701 83.386 207.571 83.045C207.243 82.19 207.248 82.178 208.018 81.977C208.395 81.879 207.68 81.778 206.429 81.753C204.945 81.723 204.243 81.849 204.407 82.114C204.57 82.378 204.303 82.432 203.648 82.268C203.016 82.109 202.636 82.177 202.636 82.448C202.636 83.105 199.68 82.976 199.114 82.294C198.846 81.971 198.41 81.707 198.146 81.707C197.882 81.707 196.908 81.158 195.981 80.487C192.225 77.766 189.705 77.304 184.828 78.444ZM200.965 85.133C203.825 85.402 204.784 87.578 202.041 87.578C201.683 87.578 200.942 87.93 200.395 88.361C199.847 88.791 199.189 89.144 198.932 89.144C196.896 89.144 197.503 92.735 199.849 94.573L201.266 95.684L202.991 94.762C203.94 94.255 204.529 93.84 204.3 93.84C204.071 93.84 203.976 93.488 204.089 93.058C204.201 92.627 204.434 92.275 204.607 92.275C204.779 92.275 205.172 92.178 205.48 92.06C206.248 91.766 206.749 98.813 206.073 100.4C205.407 101.964 204.571 102.842 203.75 102.842C203.353 102.842 203.028 102.979 203.028 103.147C203.028 104.691 187.133 105.947 184.173 104.637C183.139 104.179 182.977 103.187 183.79 102.292C184.199 101.841 184.726 101.1 184.961 100.644C185.254 100.074 186.767 99.301 189.804 98.168C196.151 95.8 196.162 95.786 194.449 92.085C193.14 89.257 192.601 88.966 187.853 88.524C185.123 88.269 184.088 87.871 185.124 87.473C187.439 86.585 192.807 85.577 194.111 85.785C195.313 85.977 195.861 85.857 196.666 85.224C197.267 84.751 197.945 84.526 198.304 84.679C198.642 84.823 199.839 85.027 200.965 85.133ZM210.827 84.545C210.634 85.212 210.733 87.579 210.953 87.578C211.115 87.578 211.247 86.874 211.247 86.013C211.247 84.78 211.004 83.932 210.827 84.545ZM163.883 92.465C164.943 93.424 164.898 93.766 163.241 97.392L161.81 100.522L162.478 103.286C163.624 108.037 162.167 109.005 151.964 110.266C138.951 111.874 136.051 111.184 135.43 106.331C135.309 105.381 134.977 104.141 134.692 103.576C133.842 101.892 133.286 97.562 133.78 96.479C134.338 95.253 138.571 93.172 141.22 92.821C143.518 92.516 143.622 93.046 141.455 94.021C138.86 95.189 137.093 97.357 137.029 99.449C137.002 100.347 136.746 101.647 136.46 102.338C135.629 104.347 135.296 104.284 144.447 103.838C151.589 103.49 152.147 103.597 152.147 105.316C152.147 107.556 154.486 108.366 156.497 106.823C157.011 106.429 157.732 105.997 158.099 105.863C160.178 105.105 162.046 99.296 160.748 97.625C160.385 97.158 159.962 96.09 159.807 95.251C159.653 94.412 159.275 93.341 158.967 92.871C157.913 91.263 162.167 90.912 163.883 92.465ZM189.848 94.156C190.426 94.795 190.43 94.946 189.886 95.722C189.029 96.945 187.372 96.887 187.372 95.634C187.372 93.456 188.568 92.742 189.848 94.156ZM202.245 94.386C202.245 95.24 201.239 95.423 201.175 94.58C201.144 94.172 201.372 93.84 201.682 93.84C201.992 93.84 202.245 94.086 202.245 94.386ZM209.989 95.015C210.084 95.66 210.23 96.189 210.313 96.189C210.396 96.189 210.464 95.66 210.464 95.015C210.464 94.369 210.319 93.84 210.141 93.84C209.963 93.84 209.894 94.369 209.989 95.015ZM84.437 106.581C84.437 107.996 83.777 108.064 83.301 106.697C82.552 104.549 82.727 103.616 83.667 104.745C84.09 105.253 84.437 106.079 84.437 106.581ZM172 123.684C171.643 123.953 171.083 124.822 170.757 125.615C170.43 126.407 169.782 127.322 169.318 127.648L168.473 128.239L169.508 128.499C171.024 128.88 172.41 128.405 172.713 127.401C172.859 126.917 173.422 126.048 173.964 125.468C175.574 123.748 173.915 122.241 172 123.684ZM183.991 124.173C183.714 124.894 184.078 125.934 184.606 125.934C185.14 125.934 185.898 124.443 185.606 123.969C185.245 123.386 184.245 123.512 183.991 124.173ZM96.498 126.914C96.252 127.453 96.167 128.01 96.308 128.151C96.721 128.564 98.103 127.089 97.871 126.485C97.551 125.65 96.995 125.824 96.498 126.914ZM206.28 138.263C206.282 139.555 206.355 140.036 206.443 139.332C206.53 138.629 206.528 137.572 206.439 136.984C206.349 136.396 206.278 136.971 206.28 138.263ZM179.544 140.075C174.487 140.352 173.877 140.507 169.035 142.737C167.137 143.612 164.47 144.552 163.109 144.828C158.461 145.769 158.784 147.901 163.457 147.13C168.486 146.299 173.001 146.864 176.724 148.789C179.363 150.153 185.369 149.235 186.809 147.247C188.736 144.586 188.701 144.608 191.515 144.366C194.634 144.098 195.875 142.343 193.366 141.747C192.76 141.604 191.56 141.177 190.699 140.799C188.793 139.963 185.497 139.749 179.544 140.075ZM180.015 203.95C178.309 209.148 176.128 212.547 174.005 213.314C172.118 213.996 175.808 215.757 178.268 215.348C180.36 215 181.522 211.653 181.627 205.669C181.711 200.938 181.187 200.38 180.015 203.95ZM176.544 219.735C173.951 221.01 173.674 221.268 172.893 223.133C172.429 224.243 171.098 227.043 169.936 229.354C167.409 234.381 167.432 234.545 170.686 234.545C175.546 234.545 181.08 242.266 182.498 251.026C183.492 257.168 184.469 259.207 187.455 261.37C190.266 263.406 194.402 262.751 196.215 259.984C196.582 259.424 197.361 258.719 197.946 258.416C201.308 256.678 203.177 249.685 201.018 246.92C200.618 246.408 199.931 244.781 199.492 243.306C198.94 241.452 198.425 240.48 197.827 240.161C197.351 239.907 196.206 239.068 195.282 238.296C194.359 237.525 192.789 236.629 191.792 236.306C189.67 235.618 188.674 233.491 188.314 228.87C187.924 223.875 186.855 221.945 183.098 219.451C180.904 217.995 180.002 218.034 176.544 219.735ZM164.432 240.289C161.55 244.785 160.986 247.018 162.199 249.131C162.795 250.169 162.808 250.649 162.339 254.192C161.524 260.347 161.752 261.431 164.621 265.041C169.889 271.67 172.218 280.929 172.648 296.943C172.933 307.592 172.908 307.569 177.553 301.534C181.213 296.78 181.417 295.536 179.153 291.782C178.292 290.355 177.586 289.045 177.585 288.872C177.584 288.698 177.343 288.116 177.05 287.578C171.356 277.127 169.098 270.405 169.578 265.337C170.082 260.009 169.973 258.339 168.807 253.557C167.607 248.629 167.634 246.802 168.937 244.972C169.965 243.53 169.974 242.89 168.977 242.268C168.453 241.941 168.194 241.355 168.194 240.499C168.194 239.204 167.286 237.48 166.604 237.48C166.399 237.48 165.422 238.744 164.432 240.289ZM248.911 298.928C248.911 299.682 248.992 299.99 249.09 299.613C249.189 299.237 249.189 298.62 249.09 298.243C248.992 297.867 248.911 298.175 248.911 298.928ZM249.694 306.756C249.694 307.51 249.774 307.818 249.873 307.441C249.971 307.064 249.971 306.448 249.873 306.071C249.774 305.695 249.694 306.003 249.694 306.756ZM251.275 316.932C251.275 317.901 251.352 318.297 251.445 317.813C251.538 317.329 251.538 316.536 251.445 316.052C251.352 315.567 251.275 315.964 251.275 316.932ZM218.176 319.136C218.024 319.287 217.901 321.018 217.901 322.982C217.901 326.832 217.222 330.125 215.994 332.239C215.57 332.969 214.258 335.944 213.079 338.85C211.9 341.756 210.196 345.693 209.293 347.598C207.899 350.537 207.473 352.08 206.483 357.774C205.841 361.466 205.134 365.015 204.911 365.66C203.942 368.468 203.749 371.706 204.414 373.992C205.65 378.245 207.285 380.508 207.372 378.087C207.435 376.319 208.447 379.983 208.993 383.958L209.463 387.382H220.562H231.661L231.407 384.741C231.267 383.288 230.989 381.142 230.789 379.972C230.589 378.802 230.425 376.425 230.424 374.688C230.421 364.727 229.215 357.175 225.918 346.482C224.724 342.607 223.378 337.5 222.928 335.132C222.477 332.764 221.788 329.77 221.395 328.478C221.003 327.187 220.408 324.931 220.074 323.465C219.407 320.54 218.604 318.708 218.176 319.136ZM151.569 336.226C149.47 340.541 149.336 341.395 151.006 339.804C153.532 337.399 155.542 333.791 154.78 333.029C153.866 332.115 153.29 332.689 151.569 336.226ZM136.338 335.555C136.207 335.896 136.1 336.486 136.1 336.867C136.1 337.249 135.324 340.36 134.376 343.783C133.428 347.205 132.349 351.678 131.979 353.723C130.926 359.537 130.048 361.213 128.742 359.907C128.377 359.542 128.272 360.368 128.272 363.625C128.272 369.46 128.434 369.422 135.946 361.844C139.201 358.561 142.592 355.38 143.483 354.774C144.636 353.989 145.102 353.398 145.102 352.719C145.102 351.427 144.595 351.519 142.805 353.136C140.936 354.825 140.65 354.834 139.888 353.228C138.019 349.289 137.245 345.298 137.232 339.535C137.222 335.292 136.933 334.005 136.338 335.555ZM255.134 361.293C254.894 361.582 254.829 361.962 254.988 362.138C255.148 362.314 254.981 362.352 254.619 362.222C254.256 362.092 253.89 362.193 253.806 362.445C253.607 363.043 254.374 365.073 254.8 365.073C254.981 365.073 255.038 365.22 254.927 365.399C254.816 365.579 254.966 365.726 255.259 365.726C255.642 365.726 255.56 365.412 254.971 364.615L254.15 363.504L255.476 362.136C256.39 361.192 256.611 360.768 256.186 360.768C255.847 360.768 255.374 361.004 255.134 361.293ZM247.809 384.666C246.715 385.087 245.408 385.87 244.904 386.407L243.987 387.382H246.131C248.043 387.382 248.411 387.242 249.526 386.092C251.712 383.837 251.159 383.378 247.809 384.666Z" fill="#A7891E"/>
</g>
</mask>
<g mask="url(#mask0_0_1)">
<path d="M274.093 29.3707L274.093 26L10.9999 26L10.9999 29.3707L274.093 29.3707Z" fill="#ffd230"/>
<path d="M274.093 42.8536L274.093 39.4829L10.9999 39.4829L10.9999 42.8536L274.093 42.8536Z" fill="#ffd230"/>
<path d="M274.093 56.3364L274.093 46.2242L10.9999 46.2242L10.9999 56.3364L274.093 56.3364Z" fill="#ffd230"/>
<path d="M274.093 69.8193L274.093 59.7072L10.9999 59.7071L10.9999 69.8193L274.093 69.8193Z" fill="#ffd230"/>
<path d="M274.093 76.5607L274.093 73.1899L10.9999 73.1899L10.9999 76.5606L274.093 76.5607Z" fill="#ffd230"/>
<path d="M274.093 90.0435L274.093 79.9314L10.9999 79.9314L10.9999 90.0435L274.093 90.0435Z" fill="#ffd230"/>
<path d="M274.093 96.785L274.093 93.4143L10.9999 93.4143L10.9999 96.785L274.093 96.785Z" fill="#ffd230"/>
<path d="M274.093 103.526L274.093 100.156L10.9999 100.156L10.9999 103.526L274.093 103.526Z" fill="#ffd230"/>
<path d="M274.093 123.751L274.093 113.639L10.9999 113.639L10.9999 123.751L274.093 123.751Z" fill="#ffd230"/>
<path d="M274.093 130.492L274.093 127.121L10.9999 127.121L10.9999 130.492L274.093 130.492Z" fill="#ffd230"/>
<path d="M274.093 143.975L274.093 133.863L10.9999 133.863L10.9999 143.975L274.093 143.975Z" fill="#ffd230"/>
<path d="M274.093 150.716L274.093 147.346L10.9999 147.346L10.9999 150.716L274.093 150.716Z" fill="#ffd230"/>
<path d="M274.093 164.2L274.093 154.087L10.9999 154.087L10.9999 164.2L274.093 164.2Z" fill="#ffd230"/>
<path d="M274.093 177.682L274.093 174.312L10.9999 174.312L10.9999 177.682L274.093 177.682Z" fill="#ffd230"/>
<path d="M274.093 184.424L274.093 181.053L10.9999 181.053L10.9999 184.424L274.093 184.424Z" fill="#ffd230"/>
<path d="M274.093 191.165L274.093 187.794L10.9999 187.794L10.9999 191.165L274.093 191.165Z" fill="#ffd230"/>
<path d="M274.093 204.648L274.093 194.536L10.9999 194.536L10.9999 204.648L274.093 204.648Z" fill="#ffd230"/>
<path d="M274.093 211.39L274.093 208.019L10.9999 208.019L10.9999 211.39L274.093 211.39Z" fill="#ffd230"/>
<path d="M274.093 218.131L274.093 214.76L10.9999 214.76L10.9999 218.131L274.093 218.131Z" fill="#ffd230"/>
<path d="M274.093 238.355L274.093 228.243L10.9999 228.243L10.9999 238.355L274.093 238.355Z" fill="#ffd230"/>
<path d="M274.093 245.097L274.093 241.726L10.9999 241.726L10.9999 245.097L274.093 245.097Z" fill="#ffd230"/>
<path d="M274.093 258.579L274.093 248.467L10.9999 248.467L10.9999 258.579L274.093 258.579Z" fill="#ffd230"/>
<path d="M274.093 265.321L274.093 261.95L10.9999 261.95L10.9999 265.321L274.093 265.321Z" fill="#ffd230"/>
<path d="M274.093 272.062L274.093 268.692L10.9999 268.692L10.9999 272.062L274.093 272.062Z" fill="#ffd230"/>
<path d="M274.093 292.287L274.093 282.175L10.9999 282.175L10.9999 292.287L274.093 292.287Z" fill="#ffd230"/>
<path d="M274.093 305.77L274.093 295.657L10.9999 295.657L10.9999 305.77L274.093 305.77Z" fill="#ffd230"/>
<path d="M274.093 312.511L274.093 309.141L10.9999 309.14L10.9999 312.511L274.093 312.511Z" fill="#ffd230"/>
<path d="M274.093 325.994L274.093 315.882L10.9999 315.882L10.9999 325.994L274.093 325.994Z" fill="#ffd230"/>
<path d="M274.093 332.735L274.093 329.365L10.9999 329.365L10.9999 332.735L274.093 332.735Z" fill="#ffd230"/>
<path d="M274.093 346.218L274.093 342.848L10.9999 342.848L10.9999 346.218L274.093 346.218Z" fill="#ffd230"/>
<path d="M274.093 352.96L274.093 349.589L10.9999 349.589L10.9999 352.96L274.093 352.96Z" fill="#ffd230"/>
<path d="M274.093 366.442L274.093 363.072L10.9999 363.072L10.9999 366.442L274.093 366.442Z" fill="#ffd230"/>
<path d="M274.093 379.926L274.093 369.813L10.9999 369.813L10.9999 379.925L274.093 379.926Z" fill="#ffd230"/>
<path d="M274.093 393.408L274.093 383.296L10.9999 383.296L10.9999 393.408L274.093 393.408Z" fill="#ffd230"/>
</g>
<defs>
<clipPath id="clip0_0_1">
<rect width="400" height="391.287" fill="white" transform="translate(-50 -4)"/>
</clipPath>
</defs>
</svg>
