<svg id="svg" xmlns="http://www.w3.org/2000/svg" xmlns:xlink="http://www.w3.org/1999/xlink" width="400" height="392" viewBox="0, 0, 400,390"><g id="svgg"><path id="path0" d="M173.496 16.700 C 171.118 17.544,168.819 18.587,168.388 19.018 C 167.308 20.098,167.751 20.023,172.684 18.285 C 175.841 17.174,177.391 16.983,178.492 17.572 C 179.560 18.144,179.838 18.125,179.455 17.505 C 178.732 16.336,184.523 16.347,187.473 17.520 C 189.296 18.245,189.103 19.453,187.237 19.002 C 186.948 18.932,186.494 19.208,186.227 19.616 C 185.536 20.673,179.209 24.554,178.177 24.554 C 176.231 24.554,170.172 28.740,171.199 29.375 C 171.891 29.803,170.553 30.769,167.104 32.331 C 164.286 33.608,161.097 35.433,160.017 36.388 C 158.904 37.372,157.932 37.756,157.771 37.274 C 157.601 36.764,156.596 37.059,155.255 38.014 C 154.027 38.889,152.656 39.604,152.208 39.604 C 151.760 39.604,151.159 40.344,150.872 41.248 C 150.585 42.152,150.195 42.736,150.005 42.547 C 149.577 42.118,144.158 47.019,144.158 47.836 C 144.158 48.688,142.035 50.693,141.131 50.693 C 140.711 50.693,140.154 51.250,139.892 51.931 C 139.631 52.612,139.083 52.963,138.674 52.711 C 137.928 52.249,136.789 53.529,136.550 55.098 C 136.479 55.560,135.277 57.164,133.878 58.662 C 132.478 60.160,130.429 62.723,129.324 64.356 C 128.219 65.990,127.005 67.327,126.627 67.327 C 126.250 67.327,125.941 67.878,125.941 68.551 C 125.941 69.224,125.066 70.650,123.996 71.719 C 122.927 72.788,122.198 73.663,122.377 73.663 C 122.556 73.663,122.183 75.134,121.549 76.931 C 120.182 80.806,120.043 84.752,121.273 84.752 C 121.755 84.752,121.943 84.214,121.690 83.555 C 121.254 82.418,122.556 78.470,123.647 77.624 C 123.927 77.406,124.826 76.152,125.643 74.837 C 128.411 70.384,130.942 67.387,131.595 67.791 C 132.399 68.287,130.942 70.863,128.317 73.588 C 124.521 77.528,123.844 79.913,127.509 76.436 C 129.345 74.693,131.110 72.583,131.432 71.746 C 131.775 70.853,132.228 70.567,132.529 71.054 C 132.812 71.511,130.886 74.156,128.250 76.932 C 123.587 81.844,123.481 82.054,124.278 84.712 C 124.728 86.215,124.930 87.611,124.727 87.815 C 124.523 88.018,124.356 87.769,124.356 87.261 C 124.356 86.752,123.982 86.337,123.524 86.337 C 122.662 86.337,122.873 92.245,123.766 93.139 C 124.033 93.406,125.055 92.876,126.038 91.961 C 130.095 88.181,130.688 90.906,127.361 98.037 C 126.493 99.898,125.748 102.638,125.706 104.126 C 125.664 105.614,125.376 106.675,125.067 106.484 C 124.757 106.293,124.686 106.833,124.909 107.685 C 125.312 109.225,128.981 112.190,130.082 111.865 C 130.399 111.771,131.236 112.812,131.943 114.178 C 133.181 116.573,133.171 116.647,131.655 116.251 C 129.804 115.767,130.370 119.036,133.125 124.752 L 134.652 127.921 134.653 124.651 C 134.653 122.725,135.137 120.981,135.831 120.405 C 136.858 119.552,136.897 119.749,136.133 121.939 C 133.552 129.344,142.325 148.911,148.226 148.911 C 149.038 148.911,149.703 149.309,149.703 149.795 C 149.703 150.293,150.403 150.497,151.305 150.261 C 152.559 149.933,153.154 150.431,154.037 152.545 C 154.904 154.619,155.637 155.248,157.187 155.248 C 158.684 155.248,159.208 155.661,159.208 156.840 C 159.208 157.716,159.915 159.944,160.780 161.791 C 161.713 163.786,162.254 166.354,162.112 168.119 C 161.980 169.752,162.164 171.089,162.521 171.089 C 162.877 171.089,163.168 172.515,163.168 174.257 C 163.168 176.258,163.533 177.430,164.158 177.438 C 164.824 177.446,164.870 177.641,164.299 178.032 C 163.831 178.352,163.200 179.286,162.896 180.108 C 162.421 181.392,161.787 181.537,158.399 181.136 C 154.030 180.618,153.300 181.466,156.634 183.186 C 171.616 190.915,177.975 194.660,178.517 196.073 C 178.761 196.708,179.641 197.228,180.472 197.228 C 183.003 197.228,184.059 199.234,181.634 199.435 C 180.511 199.528,178.937 200.359,178.137 201.282 C 177.278 202.272,176.174 202.765,175.444 202.485 C 174.636 202.175,173.950 202.624,173.467 203.778 C 172.387 206.357,170.996 207.793,168.317 209.093 C 167.010 209.727,165.673 210.376,165.347 210.536 C 165.020 210.695,164.752 210.272,164.752 209.596 C 164.752 208.829,164.306 208.538,163.564 208.822 C 162.911 209.073,161.752 208.998,160.990 208.656 C 160.228 208.313,159.069 207.941,158.416 207.829 C 157.762 207.716,156.390 207.373,155.367 207.066 C 153.514 206.509,153.512 206.518,154.793 208.996 C 155.929 211.193,155.938 211.485,154.872 211.485 C 153.178 211.485,153.352 213.064,155.050 213.094 C 156.287 213.117,156.265 213.250,154.851 214.327 C 153.980 214.991,153.357 215.982,153.466 216.530 C 153.614 217.272,152.399 217.446,148.714 217.211 C 143.621 216.887,143.574 216.859,139.622 211.841 C 137.321 208.920,136.599 209.735,138.310 213.323 C 139.089 214.957,140.620 216.548,141.938 217.094 C 144.317 218.079,146.224 220.656,145.868 222.403 C 145.612 223.659,151.158 233.011,152.718 233.954 C 153.672 234.531,153.680 234.750,152.768 235.328 C 151.892 235.883,151.926 236.018,152.947 236.027 C 155.108 236.048,156.581 238.648,156.755 242.754 C 156.848 244.922,157.338 246.952,157.845 247.265 C 158.351 247.578,158.460 248.121,158.086 248.472 C 157.713 248.822,157.241 248.643,157.038 248.073 C 156.566 246.748,148.521 243.168,146.015 243.168 C 144.967 243.168,143.904 242.634,143.653 241.980 C 143.402 241.327,142.560 240.792,141.782 240.792 C 140.216 240.792,138.825 243.371,140.153 243.813 C 141.217 244.168,141.256 246.337,140.198 246.337 C 139.762 246.337,139.406 245.847,139.406 245.248 C 139.406 244.648,138.250 243.938,136.832 243.667 C 129.123 242.195,124.611 236.863,131.683 237.582 C 132.506 237.666,133.069 237.186,133.069 236.401 C 133.069 235.505,132.654 235.238,131.781 235.572 C 131.072 235.844,130.092 235.751,129.603 235.364 C 129.113 234.978,127.287 234.434,125.545 234.155 L 122.376 233.649 124.950 234.806 C 127.319 235.871,128.576 238.416,126.733 238.416 C 126.297 238.416,125.941 237.881,125.941 237.228 C 125.941 236.516,125.210 236.040,124.119 236.040 C 123.117 236.040,121.884 235.627,121.380 235.123 C 120.701 234.443,120.186 234.436,119.392 235.095 C 118.803 235.583,116.026 235.956,113.220 235.923 C 105.802 235.836,104.554 235.968,104.554 236.841 C 104.554 237.271,104.020 237.624,103.366 237.624 C 102.713 237.624,102.178 237.964,102.178 238.380 C 102.178 238.796,101.376 239.982,100.396 241.016 C 97.049 244.546,94.257 248.083,94.257 248.794 C 94.257 249.185,93.723 249.505,93.069 249.505 C 92.330 249.505,91.881 250.253,91.881 251.485 C 91.881 252.574,92.238 253.465,92.673 253.465 C 93.109 253.465,93.465 252.964,93.465 252.351 C 93.465 251.658,94.018 251.382,94.929 251.620 C 95.734 251.831,97.784 251.404,99.484 250.673 C 112.155 245.218,119.103 247.324,121.091 257.223 C 122.192 262.705,122.229 266.139,121.188 266.139 C 120.752 266.139,120.396 266.686,120.396 267.355 C 120.396 268.303,120.727 268.394,121.897 267.767 C 123.018 267.167,123.652 267.270,124.400 268.172 C 124.951 268.836,125.865 269.202,126.430 268.985 C 127.244 268.672,127.391 270.351,127.140 277.068 C 126.966 281.730,126.803 287.392,126.778 289.650 C 126.726 294.402,124.728 295.952,121.923 293.414 C 120.460 292.090,120.396 292.103,120.396 293.724 C 120.396 295.504,117.472 296.805,115.324 295.980 C 114.710 295.745,113.585 296.241,112.823 297.083 C 112.061 297.925,111.122 298.614,110.736 298.614 C 107.838 298.614,102.970 304.795,102.970 308.476 C 102.970 310.320,103.259 310.495,106.297 310.495 C 108.884 310.495,109.413 310.706,108.673 311.446 C 107.414 312.705,107.445 315.471,108.713 315.054 C 109.257 314.876,109.816 313.777,109.954 312.612 C 110.554 307.543,115.644 312.510,115.644 318.165 C 115.644 320.088,114.931 323.136,114.059 324.940 C 111.742 329.737,112.674 340.594,115.404 340.594 C 116.836 340.594,121.650 333.730,122.719 330.164 C 123.394 327.911,124.623 326.504,127.747 324.409 C 130.021 322.884,133.020 320.555,134.412 319.234 C 135.805 317.913,137.377 316.832,137.907 316.832 C 138.437 316.832,139.971 315.607,141.316 314.111 C 142.662 312.615,145.582 310.680,147.807 309.811 L 151.851 308.232 153.450 311.146 C 155.732 315.304,153.741 318.209,142.221 327.525 C 134.788 333.536,123.141 344.797,116.040 352.838 C 112.480 356.869,111.907 358.060,110.374 364.602 C 109.437 368.606,107.952 374.733,107.075 378.218 C 106.198 381.703,105.240 386.069,104.948 387.921 L 104.415 391.287 212.557 391.287 C 272.675 391.287,320.887 390.982,321.123 390.601 C 321.356 390.223,320.842 389.277,319.981 388.498 C 319.120 387.719,318.416 387.333,318.416 387.641 C 318.416 387.949,317.525 387.239,316.436 386.064 C 315.347 384.889,314.455 383.635,314.455 383.277 C 314.455 382.920,312.851 380.821,310.891 378.614 C 308.931 376.407,307.327 374.063,307.327 373.407 C 307.327 372.750,306.525 371.123,305.545 369.790 L 303.762 367.368 308.250 363.288 C 314.602 357.513,314.939 354.060,309.941 345.956 C 308.939 344.331,308.119 342.682,308.119 342.291 C 308.119 341.900,307.495 341.091,306.733 340.493 C 305.493 339.520,305.455 339.545,306.375 340.722 C 307.218 341.800,307.218 342.144,306.375 342.631 C 305.809 342.957,305.615 342.929,305.942 342.568 C 306.270 342.206,305.914 341.197,305.150 340.324 C 304.387 339.452,304.208 338.998,304.752 339.317 C 305.297 339.635,305.743 339.536,305.743 339.096 C 305.743 338.656,305.233 338.012,304.611 337.663 C 303.988 337.315,303.469 336.759,303.457 336.429 C 303.407 335.026,302.388 329.719,301.747 327.525 C 301.366 326.218,300.822 323.188,300.538 320.792 C 300.255 318.396,299.900 315.545,299.751 314.455 C 299.601 313.366,299.262 309.802,298.997 306.535 C 298.732 303.267,298.035 298.990,297.447 297.030 C 296.859 295.069,296.108 292.396,295.778 291.089 C 295.449 289.782,295.129 288.535,295.069 288.317 C 295.009 288.099,294.665 286.675,294.305 285.153 C 292.139 275.996,282.945 256.558,278.380 251.485 C 276.812 249.743,275.754 248.762,276.029 249.307 C 276.804 250.842,275.033 250.474,274.123 248.911 C 273.679 248.149,273.305 247.806,273.291 248.150 C 273.278 248.494,272.777 248.318,272.178 247.758 C 271.580 247.199,271.261 246.294,271.471 245.747 C 271.983 244.414,271.043 244.487,269.640 245.890 C 268.923 246.608,268.799 247.211,269.306 247.524 C 269.749 247.798,270.647 249.058,271.302 250.326 C 272.990 253.590,271.019 252.653,268.706 249.092 C 267.696 247.537,266.259 246.337,265.407 246.337 C 264.577 246.337,262.632 245.107,261.085 243.604 C 259.509 242.074,256.778 240.473,254.878 239.966 C 253.012 239.467,250.861 238.734,250.099 238.335 C 249.216 237.873,248.713 237.900,248.713 238.409 C 248.713 238.848,248.232 239.208,247.643 239.208 C 246.362 239.208,238.120 223.693,238.809 222.578 C 239.091 222.123,238.742 222.011,237.969 222.307 C 236.831 222.744,236.775 222.576,237.566 221.099 C 238.278 219.767,238.265 219.430,237.507 219.593 C 236.969 219.708,236.400 219.089,236.242 218.218 C 236.001 216.889,236.097 216.825,236.841 217.822 C 237.538 218.756,237.598 218.587,237.122 217.030 C 236.789 215.941,236.550 214.250,236.590 213.273 C 236.631 212.295,236.346 211.692,235.958 211.932 C 235.570 212.172,235.607 211.436,236.040 210.297 C 236.563 208.922,236.562 208.390,236.037 208.714 C 235.602 208.983,235.248 208.404,235.248 207.424 C 235.248 206.446,234.673 203.354,233.970 200.554 C 231.649 191.299,234.427 184.224,242.474 178.890 C 246.393 176.292,253.466 159.108,255.042 148.357 C 256.589 137.807,256.911 119.625,255.646 114.280 C 254.537 109.595,254.556 109.282,256.026 107.952 C 258.304 105.890,258.933 104.387,259.830 98.854 C 261.476 88.709,260.901 87.170,255.446 87.129 C 250.727 87.093,250.227 86.500,250.718 81.536 C 250.952 79.166,251.490 77.108,251.913 76.962 C 252.337 76.816,252.499 76.399,252.275 76.036 C 252.050 75.672,252.346 74.896,252.933 74.309 C 253.645 73.597,254.024 71.003,254.075 66.484 C 254.117 62.767,254.254 59.386,254.380 58.971 C 254.507 58.557,253.954 57.237,253.153 56.038 C 252.307 54.771,251.883 53.150,252.140 52.165 C 252.621 50.326,250.277 43.389,248.468 41.297 C 247.850 40.584,246.696 38.261,245.903 36.137 C 244.441 32.222,236.367 26.931,231.857 26.931 C 231.056 26.931,230.595 26.618,230.831 26.235 C 231.068 25.852,230.277 25.342,229.073 25.102 C 227.869 24.861,225.975 23.837,224.863 22.827 C 223.034 21.164,221.869 20.703,218.790 20.422 C 218.233 20.372,217.921 19.944,218.097 19.472 C 218.272 19.000,218.843 18.712,219.366 18.832 C 219.920 18.958,220.073 18.656,219.733 18.106 C 219.331 17.455,218.628 17.817,217.466 19.274 C 215.629 21.579,212.496 22.087,211.772 20.198 C 211.521 19.545,210.641 19.010,209.816 19.010 C 208.992 19.010,208.317 18.665,208.317 18.243 C 208.317 17.821,207.849 17.655,207.277 17.875 C 206.705 18.094,205.580 17.548,204.778 16.662 C 203.032 14.733,200.068 14.605,196.044 16.287 C 193.360 17.408,192.794 17.408,189.991 16.287 C 185.869 14.637,178.811 14.814,173.496 16.700 M171.238 19.845 C 169.388 20.587,167.129 22.486,167.129 23.298 C 167.129 23.541,168.262 23.050,169.647 22.208 C 171.032 21.365,172.458 20.857,172.815 21.078 C 173.173 21.299,173.465 21.128,173.465 20.699 C 173.465 20.269,174.089 19.755,174.851 19.556 C 176.002 19.255,175.968 19.187,174.653 19.152 C 173.782 19.129,172.245 19.441,171.238 19.845 M176.634 29.181 C 176.634 29.496,175.672 29.833,174.496 29.930 C 172.468 30.098,172.438 30.050,173.894 28.985 C 175.374 27.903,176.634 27.993,176.634 29.181 M157.624 46.991 C 157.624 47.133,156.684 48.113,155.536 49.169 C 153.582 50.966,153.505 50.980,154.339 49.376 C 155.081 47.949,155.875 47.285,157.426 46.795 C 157.535 46.761,157.624 46.849,157.624 46.991 M140.110 61.980 C 139.459 62.525,137.917 64.485,136.683 66.337 C 134.206 70.051,133.454 70.553,134.107 68.056 C 134.437 66.797,134.246 66.522,133.296 66.886 C 132.248 67.288,132.215 67.168,133.085 66.119 C 133.889 65.151,134.255 65.097,134.736 65.876 C 135.169 66.577,135.592 66.252,136.148 64.790 C 136.903 62.806,138.929 61.066,140.547 61.014 C 140.957 61.001,140.761 61.436,140.110 61.980 M254.192 89.448 C 255.071 90.004,254.734 90.512,252.645 91.783 C 249.530 93.677,249.249 93.573,249.948 90.787 C 250.481 88.666,252.133 88.145,254.192 89.448 M257.426 99.626 C 257.426 107.154,253.493 109.129,251.096 102.804 L 249.682 99.073 252.564 97.510 C 256.941 95.137,257.426 95.348,257.426 99.626 M165.208 123.762 C 165.917 125.178,167.742 127.507,169.263 128.938 C 171.023 130.594,171.857 131.989,171.556 132.773 C 171.296 133.451,171.620 135.137,172.276 136.520 C 174.391 140.976,175.095 144.337,174.152 145.474 C 173.512 146.245,173.574 146.626,174.393 146.940 C 175.078 147.203,175.558 148.731,175.655 150.962 C 175.741 152.940,176.056 154.954,176.354 155.436 C 176.653 155.919,176.942 157.233,176.998 158.355 C 177.054 159.478,177.375 161.198,177.712 162.178 C 178.096 163.296,178.009 163.960,177.479 163.960 C 177.014 163.960,176.634 163.354,176.634 162.614 C 176.634 161.529,176.441 161.463,175.644 162.271 C 174.850 163.075,174.920 163.472,175.992 164.264 C 177.399 165.304,177.366 165.368,172.584 170.970 C 170.669 173.213,164.106 160.355,162.929 152.057 C 162.711 150.521,161.250 147.075,159.682 144.399 C 158.114 141.724,156.832 139.089,156.832 138.543 C 156.832 137.997,156.348 136.988,155.756 136.300 C 154.571 134.923,152.871 130.328,152.871 128.502 C 152.871 127.692,153.466 127.454,154.834 127.715 C 156.287 127.993,157.125 127.591,158.056 126.171 C 161.602 120.758,163.401 120.152,165.208 123.762 M169.432 159.864 C 170.708 162.248,172.002 162.841,171.201 160.675 C 170.838 159.695,170.096 158.745,169.550 158.563 C 168.788 158.309,168.760 158.609,169.432 159.864 M158.746 217.539 C 159.020 218.255,159.059 219.027,158.831 219.255 C 158.602 219.483,158.416 219.195,158.416 218.614 C 158.416 218.033,158.209 217.765,157.956 218.018 C 157.703 218.271,157.904 219.241,158.403 220.174 C 159.903 222.976,158.921 223.620,156.529 221.403 C 154.369 219.401,154.337 219.266,155.681 217.780 C 157.385 215.897,158.094 215.841,158.746 217.539 M147.006 245.060 C 147.238 245.664,148.385 246.374,149.556 246.637 C 150.726 246.899,152.752 248.038,154.059 249.167 C 156.291 251.095,156.319 251.186,154.516 250.661 C 153.461 250.354,151.936 249.487,151.128 248.735 C 150.320 247.982,148.243 246.942,146.513 246.424 C 143.184 245.426,142.269 243.960,144.975 243.960 C 145.860 243.960,146.774 244.455,147.006 245.060 M176.031 247.502 C 176.402 249.444,176.387 249.449,174.186 248.149 C 171.822 246.752,171.834 245.545,174.212 245.545 C 175.120 245.545,175.796 246.272,176.031 247.502 M163.176 248.325 C 164.561 249.800,165.206 250.056,165.668 249.315 C 166.371 248.190,172.811 254.399,174.683 258.007 C 175.793 260.147,175.362 262.382,174.201 260.504 C 173.844 259.925,173.343 259.660,173.089 259.914 C 172.835 260.169,173.727 261.555,175.073 262.995 C 176.418 264.435,177.719 266.615,177.964 267.839 C 178.208 269.062,178.900 270.472,179.501 270.970 C 180.102 271.469,180.594 272.487,180.594 273.232 C 180.594 273.978,180.838 274.832,181.137 275.130 C 182.051 276.044,183.738 281.469,183.750 283.534 C 183.761 285.223,183.554 285.075,182.204 282.427 C 181.347 280.745,180.831 279.070,181.057 278.704 C 181.283 278.338,180.862 278.271,180.121 278.555 C 179.003 278.984,178.859 278.730,179.277 277.065 C 179.668 275.505,179.341 274.727,177.811 273.578 C 176.728 272.765,175.842 271.679,175.842 271.165 C 175.842 270.651,175.428 270.093,174.923 269.925 C 174.285 269.712,174.243 269.193,174.785 268.224 C 175.817 266.379,172.038 261.889,170.505 263.140 C 168.982 264.383,166.882 263.205,167.361 261.377 C 167.639 260.312,167.380 259.802,166.562 259.802 C 165.575 259.802,165.533 259.582,166.337 258.614 C 166.879 257.960,168.348 257.426,169.602 257.426 C 172.222 257.426,172.391 256.883,170.477 254.619 C 167.852 251.515,166.579 250.904,164.764 251.875 C 163.028 252.804,158.416 251.479,158.416 250.052 C 158.416 246.595,160.754 245.747,163.176 248.325 M165.396 247.871 C 165.594 248.465,165.297 248.762,164.703 248.564 C 164.131 248.374,163.507 247.750,163.317 247.178 C 163.119 246.584,163.416 246.287,164.010 246.485 C 164.582 246.676,165.205 247.300,165.396 247.871 M144.158 252.365 C 144.158 253.001,144.857 253.369,145.853 253.258 C 148.053 253.013,148.673 254.720,146.583 255.266 C 145.392 255.578,144.573 255.022,143.382 253.095 C 141.486 250.027,141.324 248.931,142.970 250.297 C 143.624 250.839,144.158 251.770,144.158 252.365 M156.521 257.899 C 157.927 257.359,160.792 259.394,160.792 260.933 C 160.792 261.420,162.049 262.495,163.585 263.322 C 165.121 264.149,166.242 265.211,166.075 265.680 C 165.908 266.150,166.120 267.426,166.546 268.515 C 166.971 269.604,167.439 271.208,167.584 272.079 C 167.730 272.950,168.076 274.431,168.353 275.369 C 169.139 278.025,165.956 278.683,163.497 276.372 C 162.445 275.384,161.584 274.288,161.584 273.937 C 161.584 271.859,155.834 264.554,154.198 264.554 C 152.562 264.554,152.396 264.168,152.301 260.129 C 152.201 255.838,152.243 255.745,153.693 257.057 C 154.558 257.840,155.750 258.195,156.521 257.899 M150.948 259.349 C 152.396 260.798,152.380 261.386,150.891 261.386 C 150.238 261.386,149.703 261.237,149.703 261.055 C 149.703 260.873,149.487 260.160,149.222 259.471 C 148.624 257.911,149.452 257.853,150.948 259.349 M171.319 278.020 C 171.582 279.025,171.343 279.604,170.666 279.604 C 169.330 279.604,168.460 278.277,169.109 277.228 C 169.893 275.958,170.871 276.309,171.319 278.020 M188.503 280.594 C 188.493 282.035,188.344 282.149,187.723 281.188 C 186.730 279.652,186.730 278.812,187.723 278.812 C 188.158 278.812,188.509 279.614,188.503 280.594 M186.139 293.160 C 186.139 293.546,185.452 293.175,184.613 292.336 C 183.627 291.350,183.248 290.199,183.540 289.082 C 183.979 287.404,186.139 290.794,186.139 293.160 M137.767 291.226 C 139.326 292.561,139.987 292.838,151.420 296.951 C 159.452 299.841,180.959 313.632,177.426 313.626 C 174.636 313.622,169.137 311.905,167.309 310.466 C 166.221 309.611,164.721 308.911,163.976 308.911 C 163.231 308.911,161.977 308.198,161.188 307.327 C 160.400 306.455,159.304 305.743,158.753 305.743 C 157.755 305.743,152.833 303.370,152.080 302.525 C 151.862 302.281,149.188 301.079,146.139 299.854 C 137.812 296.510,135.487 295.227,134.202 293.267 C 133.559 292.287,132.463 291.485,131.766 291.485 C 130.707 291.485,130.667 291.282,131.527 290.246 C 132.713 288.817,135.457 289.248,137.767 291.226 M249.036 302.109 C 251.690 303.593,255.554 306.596,257.624 308.782 C 261.186 312.545,262.722 314.966,260.242 312.908 C 259.323 312.145,258.897 312.282,258.072 313.603 C 257.507 314.508,256.406 315.248,255.626 315.248 C 254.845 315.248,253.884 316.050,253.490 317.030 C 253.096 318.010,252.751 318.366,252.723 317.822 C 252.606 315.496,247.903 316.721,247.406 319.208 C 247.145 320.515,246.512 321.584,245.999 321.584 C 243.779 321.584,240.804 323.651,240.798 325.197 C 240.795 326.095,240.083 327.591,239.216 328.522 C 238.297 329.509,237.967 330.415,238.424 330.698 C 239.945 331.638,239.178 333.507,236.634 335.058 C 234.656 336.264,234.417 336.628,235.604 336.631 C 236.788 336.633,236.931 336.851,236.217 337.565 C 235.502 338.280,234.943 338.187,233.818 337.169 C 233.011 336.439,231.755 335.842,231.027 335.842 C 230.299 335.842,229.703 335.566,229.703 335.230 C 229.703 334.597,222.385 332.673,219.977 332.673 C 218.264 332.673,218.272 332.511,220.198 328.526 C 221.069 326.722,221.782 324.858,221.782 324.383 C 221.782 323.907,222.512 322.994,223.403 322.353 C 224.295 321.712,225.406 319.673,225.873 317.822 C 226.341 315.970,226.995 314.455,227.328 314.455 C 227.830 314.455,228.332 313.235,228.956 310.495 C 229.006 310.277,230.264 308.405,231.751 306.335 C 233.239 304.264,234.455 302.054,234.455 301.424 C 234.455 297.774,241.913 298.124,249.036 302.109 M111.683 307.723 C 111.683 308.376,111.327 308.911,110.891 308.911 C 110.455 308.911,110.099 308.376,110.099 307.723 C 110.099 307.069,110.455 306.535,110.891 306.535 C 111.327 306.535,111.683 307.069,111.683 307.723 M256.049 311.834 C 256.785 312.570,257.654 312.908,257.978 312.583 C 258.302 312.259,258.044 311.661,257.403 311.256 C 255.474 310.037,254.617 310.402,256.049 311.834 M260.748 315.856 C 260.222 316.032,259.991 316.497,260.234 316.890 C 260.477 317.284,260.139 317.399,259.482 317.147 C 258.543 316.787,258.492 316.469,259.243 315.655 C 259.768 315.087,260.537 314.828,260.951 315.080 C 261.380 315.341,261.293 315.675,260.748 315.856 M185.794 318.442 C 187.005 318.485,190.262 321.495,189.972 322.302 C 189.522 323.551,184.442 320.928,183.994 319.216 C 183.765 318.340,183.085 317.624,182.482 317.624 C 181.879 317.624,181.386 317.027,181.386 316.298 C 181.386 315.171,181.663 315.231,183.219 316.694 C 184.228 317.641,185.386 318.428,185.794 318.442 M215.752 353.046 C 216.065 353.359,217.074 353.626,217.993 353.640 C 218.911 353.653,219.826 354.147,220.024 354.737 C 220.454 356.014,216.303 355.337,213.069 353.601 L 211.089 352.539 213.135 352.507 C 214.261 352.490,215.438 352.732,215.752 353.046 M88.279 362.892 C 87.600 365.031,89.216 372.198,91.356 376.536 L 93.260 380.398 93.620 375.426 C 93.925 371.213,94.314 370.166,96.174 368.567 C 98.368 366.680,98.219 365.411,95.576 363.476 C 95.212 363.209,95.034 362.725,95.180 362.399 C 95.326 362.073,93.934 361.734,92.086 361.644 C 89.470 361.517,88.628 361.793,88.279 362.892 " stroke="none" fill="#ffd230" fill-rule="evenodd"></path></g></svg>
