<svg width="96" height="96" viewBox="0 0 96 96" fill="none" xmlns="http://www.w3.org/2000/svg">
<path d="M1 17H16.9111L36.3581 68.2692H20.4469L13.2109 49.1923L1 17Z" fill="#FFD230"/>
<path d="M18.679 17H34.5902L54.0371 68.2692H38.126L18.679 17Z" fill="#FFD230"/>
<path d="M36.358 17H52.2692L71.7161 68.2692H55.805L36.358 17Z" fill="#FFD230"/>
<path d="M36.358 17H52.2692L71.7161 68.2692H55.805L36.358 17Z" fill="#FFD230"/>
<rect x="24.9284" y="53.9615" width="38.1538" height="14.3077" fill="#FFD230"/>
<rect x="18.9669" y="69.4615" width="59.6154" height="9.53846" fill="#FFD230"/>
<path d="M58.313 27.7308H74.2241L93.6711 79H77.7599L58.313 27.7308Z" fill="#FFD230"/>
<path d="M73.813 27.7308H89.7241L94.5859 40.5481L83.5365 53.3654L78.6747 40.5481L73.813 27.7308Z" fill="#FFD230"/>
<path d="M77.3899 37.2692L79.0591 41.4423L81.563 38.9385L80.7284 37.2692H77.3899Z" fill="#101828"/>
<path d="M12.4091 79L23.1399 79L17.7745 64.6923L12.4091 79Z" fill="#FFD230"/>
</svg>
